<svg width="27" height="27" viewBox="0 0 27 27" fill="none" xmlns="http://www.w3.org/2000/svg">
<g clip-path="url(#clip0_40_1360)">
<path d="M7.4869 0.907603C7.06157 0.416593 6.46876 0.10142 5.82385 0.0234384C5.17894 -0.0545435 4.52809 0.110246 3.99799 0.485728C2.85698 1.30854 1.78599 2.22432 0.795959 3.2237C-2.36388 6.38354 4.55908 16.112 7.72315 19.276C10.3219 21.8748 17.3503 27.0006 21.5142 27.0006C21.9233 27.0241 22.3329 26.9649 22.7186 26.8264C23.1042 26.688 23.4579 26.4732 23.7586 26.1948C24.7568 25.2037 25.6725 24.1328 26.4966 22.9928C26.8721 22.4627 27.0369 21.8118 26.9589 21.1669C26.8809 20.522 26.5657 19.9292 26.0747 19.5039C24.518 18.1707 20.7506 15.2176 19.4302 16.5507C18.4936 17.4915 16.0003 19.9848 14.6967 18.6854L8.31799 12.2856C7.01861 10.982 9.5119 8.4887 10.4527 7.55213C11.7731 6.23167 8.82002 2.46432 7.4869 0.907603ZM6.84565 1.45182C9.26721 4.28682 10.2924 6.51432 9.85362 6.9362C9.67221 7.12182 9.43174 7.35807 9.18705 7.62385L4.54643 1.13963C4.90259 0.904724 5.33184 0.806905 5.75461 0.86431C6.17739 0.921714 6.56502 1.13045 6.84565 1.45182ZM20.0461 17.1456C20.468 16.7237 22.7124 17.732 25.5305 20.1535C25.8429 20.4282 26.0485 20.8043 26.111 21.2156C26.1735 21.6269 26.089 22.047 25.8722 22.4021L19.62 17.5632L20.0461 17.1456ZM7.72315 12.8804L14.1188 19.276C15.6839 20.8412 17.9494 19.1242 19.3121 17.8543L25.6402 22.7481C24.8992 23.7605 24.0842 24.7166 23.2017 25.6084C20.8688 27.9371 12.1697 22.5034 8.33908 18.6812C4.50846 14.859 -0.937947 6.15151 1.3908 3.81854C2.27121 2.93933 3.21602 2.12707 4.21737 1.38854L8.89596 7.95713C7.6683 9.33667 6.25924 11.4165 7.72315 12.8804Z" fill="#FF6700"/>
<path d="M13.5 0C13.3881 0 13.2808 0.0444474 13.2017 0.123564C13.1226 0.202681 13.0781 0.309987 13.0781 0.421875C13.0781 0.533763 13.1226 0.641069 13.2017 0.720186C13.2808 0.799303 13.3881 0.84375 13.5 0.84375C16.8566 0.84375 20.0758 2.17717 22.4493 4.55068C24.8228 6.92419 26.1562 10.1434 26.1562 13.5C26.1563 13.6119 26.2007 13.7192 26.2798 13.7983C26.3589 13.8774 26.4662 13.9219 26.5781 13.9219C26.69 13.9219 26.7973 13.8774 26.8764 13.7983C26.9556 13.7192 27 13.6119 27 13.5C27 9.91958 25.5777 6.4858 23.0459 3.95406C20.5142 1.42232 17.0804 0 13.5 0V0Z" fill="#FF6700"/>
<path d="M24.397 12.6562H24.4434C24.554 12.6435 24.6551 12.5876 24.7246 12.5007C24.7942 12.4137 24.8265 12.3028 24.8147 12.1922C24.53 9.63679 23.3848 7.2542 21.5671 5.43573C19.7494 3.61725 17.3673 2.47101 14.812 2.18528C14.7566 2.17919 14.7006 2.18407 14.647 2.19964C14.5935 2.21521 14.5436 2.24117 14.5001 2.27603C14.4123 2.34645 14.356 2.44886 14.3437 2.56075C14.3314 2.67264 14.3641 2.78484 14.4345 2.87266C14.5049 2.96048 14.6073 3.01673 14.7192 3.02903C17.0829 3.29199 19.2868 4.35113 20.9689 6.03243C22.651 7.71373 23.7111 9.91719 23.9751 12.2808C23.9866 12.3844 24.0361 12.4802 24.114 12.5495C24.1919 12.6188 24.2927 12.6569 24.397 12.6562Z" fill="#FF6700"/>
<path d="M21.5874 11.0911C21.6034 11.1443 21.6298 11.1938 21.665 11.2367C21.7002 11.2797 21.7435 11.3154 21.7925 11.3416C21.8415 11.3679 21.8951 11.3842 21.9504 11.3897C22.0057 11.3952 22.0615 11.3898 22.1147 11.3737C22.1679 11.3577 22.2174 11.3313 22.2604 11.2961C22.3034 11.2609 22.339 11.2176 22.3652 11.1686C22.3915 11.1196 22.4078 11.066 22.4133 11.0107C22.4189 10.9554 22.4134 10.8996 22.3974 10.8464C21.9326 9.29584 21.0714 7.8934 19.8986 6.77766C18.7259 5.66192 17.2824 4.8715 15.7106 4.4845C15.6038 4.46243 15.4926 4.48257 15.4004 4.54071C15.3081 4.59884 15.2419 4.69045 15.2157 4.79632C15.1895 4.90219 15.2053 5.01408 15.2599 5.10854C15.3144 5.20299 15.4034 5.27267 15.5081 5.30294C16.9375 5.65528 18.2502 6.37457 19.3164 7.38971C20.3826 8.40485 21.1654 9.68068 21.5874 11.0911V11.0911Z" fill="#FF6700"/>
<path d="M14.3437 9.28125C14.3437 8.8337 14.166 8.40448 13.8495 8.08801C13.533 7.77154 13.1038 7.59375 12.6562 7.59375C12.2087 7.59375 11.7795 7.77154 11.463 8.08801C11.1465 8.40448 10.9687 8.8337 10.9687 9.28125C10.9687 9.39314 11.0132 9.50044 11.0923 9.57956C11.1714 9.65868 11.2787 9.70312 11.3906 9.70312C11.5025 9.70312 11.6098 9.65868 11.6889 9.57956C11.7681 9.50044 11.8125 9.39314 11.8125 9.28125C11.8125 9.05747 11.9014 8.84286 12.0596 8.68463C12.2179 8.52639 12.4325 8.4375 12.6562 8.4375C12.88 8.4375 13.0946 8.52639 13.2529 8.68463C13.4111 8.84286 13.5 9.05747 13.5 9.28125C13.5 10.0364 12.0614 11.2767 11.1544 11.8842C11.0793 11.9347 11.0224 12.008 10.9921 12.0933C10.9618 12.1785 10.9598 12.2713 10.9863 12.3578C11.0127 12.4444 11.0664 12.5201 11.1392 12.5738C11.212 12.6276 11.3001 12.6565 11.3906 12.6562H13.9219C14.0338 12.6562 14.1411 12.6118 14.2202 12.5327C14.2993 12.4536 14.3437 12.3463 14.3437 12.2344C14.3437 12.1225 14.2993 12.0152 14.2202 11.9361C14.1411 11.8569 14.0338 11.8125 13.9219 11.8125H12.6562C13.4156 11.1502 14.3437 10.1756 14.3437 9.28125Z" fill="#FF6700"/>
<path d="M17.7188 12.6562C17.8306 12.6562 17.9379 12.6118 18.0171 12.5327C18.0962 12.4536 18.1406 12.3463 18.1406 12.2344V8.01562C18.1406 7.90374 18.0962 7.79643 18.0171 7.71731C17.9379 7.6382 17.8306 7.59375 17.7188 7.59375C17.6069 7.59375 17.4996 7.6382 17.4204 7.71731C17.3413 7.79643 17.2969 7.90374 17.2969 8.01562V9.70312H16.4531V8.01562C16.4531 7.90374 16.4087 7.79643 16.3296 7.71731C16.2504 7.6382 16.1431 7.59375 16.0312 7.59375C15.9194 7.59375 15.8121 7.6382 15.7329 7.71731C15.6538 7.79643 15.6094 7.90374 15.6094 8.01562V9.70312C15.6094 9.9269 15.6983 10.1415 15.8565 10.2997C16.0147 10.458 16.2293 10.5469 16.4531 10.5469H17.2969V12.2344C17.2969 12.3463 17.3413 12.4536 17.4204 12.5327C17.4996 12.6118 17.6069 12.6562 17.7188 12.6562Z" fill="#FF6700"/>
<path d="M14.7656 14.3438H16.875C16.3434 15.1116 15.6094 16.3603 15.6094 17.2969C15.6094 17.4088 15.6538 17.5161 15.7329 17.5952C15.8121 17.6743 15.9194 17.7188 16.0313 17.7188C16.1431 17.7188 16.2504 17.6743 16.3296 17.5952C16.4087 17.5161 16.4531 17.4088 16.4531 17.2969C16.4531 16.3814 17.6048 14.7403 18.0478 14.1834C18.0928 14.1239 18.1212 14.0535 18.1301 13.9793C18.139 13.9052 18.1281 13.8301 18.0984 13.7616C18.0674 13.6858 18.0149 13.6208 17.9475 13.5743C17.8801 13.5279 17.8006 13.5021 17.7188 13.5H14.7656C14.6537 13.5 14.5464 13.5444 14.4673 13.6236C14.3882 13.7027 14.3438 13.81 14.3438 13.9219C14.3438 14.0338 14.3882 14.1411 14.4673 14.2202C14.5464 14.2993 14.6537 14.3438 14.7656 14.3438Z" fill="#FF6700"/>
</g>
<defs>
<clipPath id="clip0_40_1360">
<rect width="27" height="27" fill="white"/>
</clipPath>
</defs>
</svg>
