<svg width="20" height="30" viewBox="0 0 20 30" fill="none" xmlns="http://www.w3.org/2000/svg">
<g clip-path="url(#clip0_40_1370)">
<path fill-rule="evenodd" clip-rule="evenodd" d="M2.80355 2.71237C6.77315 -1.21978 13.228 -1.218 17.2089 2.71182L17.2103 2.7132C20.3802 5.85645 21.1087 10.6611 18.9875 14.5689C18.9873 14.5691 18.9872 14.5693 18.9871 14.5696L10.7801 29.7603C10.6261 30.0454 10.3263 30.2234 10 30.2234C9.67373 30.2234 9.37392 30.0454 9.21988 29.7603L1.01178 14.5674C-1.0945 10.6617 -0.368383 5.84413 2.80355 2.71237ZM15.9592 3.95411C12.6674 0.705413 7.33112 0.707264 4.05418 3.95379L4.05306 3.95489C1.43327 6.54111 0.834924 10.518 2.57267 13.7403L10 27.4881L17.4277 13.7398L17.4285 13.7382C19.1768 10.5181 18.5808 6.55429 15.9592 3.95411ZM12.934 7.04464C11.3053 5.4368 8.68179 5.4368 7.05306 7.04464C5.42634 8.6505 5.42634 11.2342 7.05306 12.84C8.68179 14.4479 11.3053 14.4479 12.934 12.84L12.9361 12.838C14.5589 11.2465 14.5618 8.65164 12.934 7.04464ZM5.80411 5.80157C8.12344 3.51197 11.8636 3.51197 14.1829 5.80157C16.5028 8.09168 16.5061 11.8038 14.1818 14.0842C11.8624 16.3727 8.12307 16.3723 5.80411 14.0831C3.48278 11.7915 3.48278 8.09314 5.80411 5.80157Z" fill="#FF6700"/>
</g>
<defs>
<clipPath id="clip0_40_1370">
<rect width="20" height="30" fill="white"/>
</clipPath>
</defs>
</svg>
