<svg width="26" height="26" viewBox="0 0 26 26" fill="none" xmlns="http://www.w3.org/2000/svg">
<path d="M3.25 11.375H19.5V9.75H3.25V11.375ZM12.1875 21.125H17.875V19.5H12.1875V21.125ZM12.1875 17.875H19.5V16.25H12.1875V17.875ZM12.1875 14.625H19.5V13H12.1875V14.625ZM3.25 21.125H10.5625V13H3.25V21.125ZM22.75 8.125V4.875H0V22.75C0 22.75 0 26 3.25 26H23.5625C23.5625 26 26 25.9496 26 22.75V8.125H22.75ZM3.25 24.375C1.625 24.375 1.625 22.75 1.625 22.75V6.5H21.125V22.75C21.125 23.4983 21.3558 24.0159 21.6742 24.375H3.25Z" fill="#444444"/>
</svg>
