<svg width="13" height="22" viewBox="0 0 13 22" fill="none" xmlns="http://www.w3.org/2000/svg">
<path fill-rule="evenodd" clip-rule="evenodd" d="M10.2146 0.734929C10.1232 0.300951 9.73149 -0.00841895 9.28322 0.000174666H3.71242C3.26414 -0.00841895 2.87245 0.300951 2.7854 0.734929L2.04118 3.75988H10.9806L10.2146 0.734929ZM2.01942 18.2401L2.78105 21.2651C2.87245 21.699 3.25979 22.0084 3.70807 21.9998H9.27887C9.72715 22.0084 10.1188 21.699 10.2059 21.2651L10.9501 18.2401H2.01942ZM2.7854 4.58487H10.2102C11.7509 4.58487 12.9956 5.81376 13 7.33483V14.6695C13 16.1863 11.7509 17.4194 10.2146 17.4194H2.7854C1.24908 17.4194 0 16.1863 0 14.6695V7.33483C0 5.81805 1.24908 4.58487 2.7854 4.58487ZM2.7854 11C2.7854 11.5027 3.19886 11.9152 3.71242 11.9152C4.22598 11.9152 4.63944 11.507 4.63944 11C4.63944 10.4973 4.22598 10.0848 3.71242 10.0848C3.20321 10.0848 2.7854 10.493 2.7854 11ZM5.57081 11C5.57081 11.5027 5.98426 11.9152 6.49782 11.9152C7.01138 11.9152 7.42484 11.507 7.42484 11C7.42484 10.4973 7.01138 10.0848 6.49782 10.0848C5.98862 10.0848 5.57081 10.493 5.57081 11ZM8.35621 11C8.35621 11.5027 8.76967 11.9152 9.28323 11.9152C9.79679 11.9152 10.2102 11.507 10.2102 11C10.2102 10.4973 9.79679 10.0848 9.28323 10.0848C8.77402 10.0848 8.35621 10.493 8.35621 11Z" fill="#444444"/>
</svg>
