<svg width="24" height="24" viewBox="0 0 24 24" fill="none" xmlns="http://www.w3.org/2000/svg">
<g clip-path="url(#clip0_40_1341)">
<path d="M6.75 2.4375C6.86125 2.4375 6.97001 2.40451 7.06251 2.3427C7.15501 2.28089 7.22711 2.19304 7.26968 2.09026C7.31226 1.98748 7.3234 1.87438 7.30169 1.76526C7.27999 1.65615 7.22641 1.55592 7.14775 1.47725C7.06908 1.39859 6.96885 1.34501 6.85974 1.32331C6.75062 1.3016 6.63752 1.31274 6.53474 1.35532C6.43196 1.39789 6.34411 1.46999 6.2823 1.56249C6.22049 1.65499 6.1875 1.76375 6.1875 1.875C6.1875 2.02418 6.24676 2.16726 6.35225 2.27275C6.45774 2.37824 6.60082 2.4375 6.75 2.4375ZM6.75 1.6875C6.78708 1.6875 6.82334 1.6985 6.85417 1.7191C6.885 1.7397 6.90904 1.76899 6.92323 1.80325C6.93742 1.83751 6.94113 1.87521 6.9339 1.91158C6.92666 1.94795 6.90881 1.98136 6.88258 2.00758C6.85636 2.03381 6.82295 2.05166 6.78658 2.0589C6.75021 2.06613 6.71251 2.06242 6.67825 2.04823C6.64399 2.03404 6.6147 2.01 6.5941 1.97917C6.5735 1.94834 6.5625 1.91208 6.5625 1.875C6.5625 1.82527 6.58225 1.77758 6.61742 1.74242C6.65258 1.70725 6.70027 1.6875 6.75 1.6875Z" fill="#444444"/>
<path d="M8.25 2.25C8.45711 2.25 8.625 2.08211 8.625 1.875C8.625 1.66789 8.45711 1.5 8.25 1.5C8.04289 1.5 7.875 1.66789 7.875 1.875C7.875 2.08211 8.04289 2.25 8.25 2.25Z" fill="#444444"/>
<path d="M5.25 2.25C5.45711 2.25 5.625 2.08211 5.625 1.875C5.625 1.66789 5.45711 1.5 5.25 1.5C5.04289 1.5 4.875 1.66789 4.875 1.875C4.875 2.08211 5.04289 2.25 5.25 2.25Z" fill="#444444"/>
<path d="M22.125 5.625H13.125V1.875C13.125 1.37772 12.9275 0.900805 12.5758 0.549175C12.2242 0.197544 11.7473 0 11.25 0L2.25 0C2.00377 0 1.75995 0.0484983 1.53247 0.142726C1.30498 0.236953 1.09828 0.375065 0.924175 0.549175C0.572544 0.900805 0.375 1.37772 0.375 1.875V3C0.275544 3 0.180161 3.03951 0.109835 3.10984C0.0395088 3.18016 0 3.27554 0 3.375L0 4.875C0 4.97446 0.0395088 5.06984 0.109835 5.14016C0.180161 5.21049 0.275544 5.25 0.375 5.25V6.375C0.275544 6.375 0.180161 6.41451 0.109835 6.48483C0.0395088 6.55516 0 6.65054 0 6.75L0 8.25C0 8.34946 0.0395088 8.44484 0.109835 8.51517C0.180161 8.58549 0.275544 8.625 0.375 8.625V22.125C0.375 22.6223 0.572544 23.0992 0.924175 23.4508C1.09828 23.6249 1.30498 23.763 1.53247 23.8573C1.75995 23.9515 2.00377 24 2.25 24H11.25C11.7473 24 12.2242 23.8025 12.5758 23.4508C12.9275 23.0992 13.125 22.6223 13.125 22.125V19.875L14.4487 18.6788C14.6547 18.4934 14.9217 18.3906 15.1987 18.39H22.125C22.2511 18.3886 22.3767 18.3748 22.5 18.3488C22.6288 18.3201 22.7544 18.2786 22.875 18.225H22.8975C23.2287 18.0753 23.5092 17.8325 23.705 17.5262C23.9007 17.22 24.0032 16.8634 24 16.5V7.5C24 7.00272 23.8025 6.52581 23.4508 6.17417C23.0992 5.82254 22.6223 5.625 22.125 5.625ZM8.25 18.375H9C9.26856 18.3712 9.52959 18.4637 9.73592 18.6356C9.94225 18.8076 10.0803 19.0477 10.125 19.3125H1.125V2.0625H2.25C2.44291 2.06743 2.63228 2.11545 2.80423 2.20305C2.97618 2.29064 3.12635 2.41559 3.24375 2.56875C3.39389 2.75889 3.58459 2.9131 3.80192 3.02015C4.01926 3.12719 4.25775 3.18437 4.5 3.1875H9C9.24225 3.18437 9.48074 3.12719 9.69808 3.02015C9.91541 2.9131 10.1061 2.75889 10.2563 2.56875C10.3737 2.41559 10.5238 2.29064 10.6958 2.20305C10.8677 2.11545 11.0571 2.06743 11.25 2.0625H12.375V5.625H8.25C7.75272 5.625 7.27581 5.82254 6.92417 6.17417C6.57254 6.52581 6.375 7.00272 6.375 7.5V16.5C6.375 16.9973 6.57254 17.4742 6.92417 17.8258C7.27581 18.1775 7.75272 18.375 8.25 18.375ZM2.25 0.75H11.25C11.5186 0.746248 11.7796 0.838699 11.9859 1.01064C12.1923 1.18258 12.3303 1.42267 12.375 1.6875H11.25C11.0078 1.69063 10.7693 1.74781 10.5519 1.85485C10.3346 1.9619 10.1439 2.11611 9.99375 2.30625C9.87635 2.45941 9.72618 2.58436 9.55423 2.67195C9.38228 2.75955 9.19291 2.80757 9 2.8125H4.5C4.30709 2.80757 4.11772 2.75955 3.94577 2.67195C3.77382 2.58436 3.62365 2.45941 3.50625 2.30625C3.35611 2.11611 3.16541 1.9619 2.94808 1.85485C2.73074 1.74781 2.49225 1.69063 2.25 1.6875H1.14375C1.18797 1.42587 1.32325 1.18829 1.52568 1.01674C1.72811 0.845189 1.98466 0.750711 2.25 0.75ZM12.375 22.125C12.375 22.4234 12.2565 22.7095 12.0455 22.9205C11.8345 23.1315 11.5484 23.25 11.25 23.25H2.25C1.95163 23.25 1.66548 23.1315 1.4545 22.9205C1.24353 22.7095 1.125 22.4234 1.125 22.125V19.6875H10.125V21.0938C10.1242 21.2181 10.1591 21.34 10.2256 21.445C10.292 21.5501 10.3873 21.6338 10.5 21.6863C10.5506 21.7115 10.6051 21.728 10.6613 21.735H10.71H10.7775H10.8112C10.8595 21.733 10.9073 21.7255 10.9537 21.7125L11.0175 21.6937C11.0863 21.6656 11.1507 21.6278 11.2087 21.5812L12.375 20.535V22.125ZM18.7838 17.625L16.6425 15.4875C16.5114 15.3547 16.3486 15.2574 16.1695 15.2049C15.9904 15.1524 15.8008 15.1464 15.6188 15.1875C15.1661 15.2833 14.6974 15.2717 14.25 15.1537C13.7376 15.0161 13.2704 14.7462 12.8952 14.371C12.5201 13.9958 12.2501 13.5286 12.1125 13.0162C12.0157 12.661 11.989 12.2904 12.0338 11.925L13.1588 13.05C13.3729 13.2545 13.6576 13.3686 13.9537 13.3686C14.2499 13.3686 14.5346 13.2545 14.7488 13.05L15.795 12C16.0057 11.7891 16.124 11.5031 16.124 11.205C16.124 10.9069 16.0057 10.6209 15.795 10.41L14.67 9.285C15.0369 9.2434 15.4084 9.27139 15.765 9.3675C16.2772 9.50549 16.7442 9.77555 17.1193 10.1507C17.4945 10.5258 17.7645 10.9928 17.9025 11.505C18.021 11.9562 18.0313 12.4291 17.9325 12.885C17.8937 13.068 17.9012 13.2578 17.9542 13.4372C18.0072 13.6166 18.1042 13.78 18.2362 13.9125L21.9637 17.625H18.7838ZM23.25 16.5C23.249 16.6743 23.2075 16.846 23.1287 17.0016C23.05 17.1571 22.9362 17.2922 22.7962 17.3962L18.75 13.3688C18.7068 13.3243 18.6753 13.2699 18.6583 13.2104C18.6413 13.1508 18.6393 13.088 18.6525 13.0275C18.7756 12.4561 18.7615 11.8636 18.6112 11.2987C18.4398 10.6599 18.1043 10.0769 17.6378 9.6079C17.1714 9.13885 16.5904 8.8 15.9525 8.625C15.506 8.50933 15.0424 8.47503 14.5837 8.52375C14.4431 8.53971 14.3099 8.59513 14.1995 8.6836C14.089 8.77206 14.0059 8.88997 13.9596 9.0237C13.9133 9.15743 13.9058 9.30152 13.938 9.43933C13.9701 9.57714 14.0406 9.70305 14.1412 9.8025L15.2662 10.9275C15.3355 10.9973 15.3746 11.0916 15.375 11.19C15.3753 11.2394 15.3658 11.2883 15.3472 11.334C15.3285 11.3797 15.301 11.4212 15.2662 11.4562L14.205 12.5175C14.1701 12.5526 14.1287 12.5805 14.083 12.5996C14.0373 12.6186 13.9883 12.6284 13.9387 12.6284C13.8892 12.6284 13.8402 12.6186 13.7945 12.5996C13.7488 12.5805 13.7074 12.5526 13.6725 12.5175L12.5475 11.3925C12.448 11.2918 12.3221 11.2214 12.1843 11.1892C12.0465 11.1571 11.9024 11.1646 11.7687 11.2108C11.635 11.2571 11.5171 11.3403 11.4286 11.4507C11.3401 11.5612 11.2847 11.6944 11.2687 11.835C11.2164 12.2936 11.2508 12.7579 11.37 13.2037C11.5427 13.845 11.881 14.4297 12.3509 14.8989C12.8209 15.3682 13.406 15.7057 14.0475 15.8775C14.6111 16.0278 15.2024 16.042 15.7725 15.9188C15.8324 15.9062 15.8945 15.9085 15.9534 15.9255C16.0122 15.9425 16.066 15.9737 16.11 16.0163L17.7225 17.625H15.2025C14.7383 17.6252 14.2907 17.7976 13.9462 18.1087L12.4988 19.4137L10.875 20.88V19.5C10.875 19.0027 10.6775 18.5258 10.3258 18.1742C9.97419 17.8225 9.49728 17.625 9 17.625H8.25C7.95163 17.625 7.66548 17.5065 7.4545 17.2955C7.24353 17.0845 7.125 16.7984 7.125 16.5V7.5C7.125 7.20163 7.24353 6.91548 7.4545 6.7045C7.66548 6.49353 7.95163 6.375 8.25 6.375H22.125C22.4234 6.375 22.7095 6.49353 22.9205 6.7045C23.1315 6.91548 23.25 7.20163 23.25 7.5V16.5Z" fill="#444444"/>
<path d="M13.4137 10.125L12.8812 10.6537C12.7768 10.7597 12.7183 10.9025 12.7183 11.0512C12.7183 11.2 12.7768 11.3428 12.8812 11.4487L13.4137 12C13.4653 12.0531 13.5271 12.0951 13.5955 12.1235C13.6638 12.1519 13.7372 12.166 13.8112 12.165C13.8852 12.1656 13.9585 12.1512 14.0268 12.1229C14.095 12.0945 14.1569 12.0528 14.2087 12L14.7375 11.4712C14.7901 11.4193 14.8319 11.3574 14.8604 11.2891C14.8889 11.2209 14.9036 11.1477 14.9036 11.0737C14.9036 10.9998 14.8889 10.9266 14.8604 10.8583C14.8319 10.7901 14.7901 10.7282 14.7375 10.6762L14.2087 10.125C14.1568 10.0724 14.0949 10.0306 14.0266 10.0021C13.9584 9.9736 13.8852 9.95892 13.8112 9.95892C13.7373 9.95892 13.6641 9.9736 13.5958 10.0021C13.5276 10.0306 13.4657 10.0724 13.4137 10.125ZM14.475 10.92C14.5093 10.955 14.5286 11.0022 14.5286 11.0512C14.5286 11.1003 14.5093 11.1474 14.475 11.1825L13.9425 11.715C13.9068 11.7496 13.8591 11.7689 13.8094 11.7689C13.7597 11.7689 13.7119 11.7496 13.6762 11.715L13.1475 11.1825C13.1131 11.1474 13.0939 11.1003 13.0939 11.0512C13.0939 11.0022 13.1131 10.955 13.1475 10.92L13.6762 10.3875C13.7132 10.354 13.7613 10.3353 13.8112 10.335C13.86 10.3355 13.9068 10.3542 13.9425 10.3875L14.475 10.92Z" fill="#444444"/>
<path d="M13.875 6.9375C13.8253 6.9375 13.7776 6.95725 13.7424 6.99242C13.7073 7.02758 13.6875 7.07527 13.6875 7.125V7.875C13.6875 7.92473 13.7073 7.97242 13.7424 8.00758C13.7776 8.04275 13.8253 8.0625 13.875 8.0625C13.9247 8.0625 13.9724 8.04275 14.0076 8.00758C14.0427 7.97242 14.0625 7.92473 14.0625 7.875V7.125C14.0625 7.07527 14.0427 7.02758 14.0076 6.99242C13.9724 6.95725 13.9247 6.9375 13.875 6.9375Z" fill="#444444"/>
<path d="M13.125 8.06251C13.1496 8.06281 13.174 8.05796 13.1966 8.04827C13.2192 8.03858 13.2395 8.02427 13.2563 8.00626C13.2742 7.98942 13.2885 7.96909 13.2983 7.94652C13.308 7.92394 13.3131 7.89961 13.3131 7.87501C13.3131 7.85041 13.308 7.82607 13.2983 7.8035C13.2885 7.78092 13.2742 7.76059 13.2563 7.74376L12.8813 7.36876C12.864 7.35152 12.8436 7.33785 12.821 7.32852C12.7985 7.31919 12.7744 7.31439 12.75 7.31439C12.7256 7.31439 12.7015 7.31919 12.679 7.32852C12.6565 7.33785 12.636 7.35152 12.6188 7.36876C12.6015 7.38599 12.5878 7.40646 12.5785 7.42898C12.5692 7.4515 12.5644 7.47563 12.5644 7.50001C12.5644 7.52438 12.5692 7.54852 12.5785 7.57104C12.5878 7.59356 12.6015 7.61402 12.6188 7.63126L12.9938 8.00626C13.0105 8.02427 13.0308 8.03858 13.0534 8.04827C13.076 8.05796 13.1004 8.06281 13.125 8.06251Z" fill="#444444"/>
<path d="M3.375 20.0625C3.11541 20.0625 2.86165 20.1395 2.64581 20.2837C2.42998 20.4279 2.26175 20.6329 2.16241 20.8727C2.06307 21.1126 2.03708 21.3765 2.08772 21.6311C2.13836 21.8857 2.26337 22.1195 2.44692 22.3031C2.63048 22.4866 2.86434 22.6116 3.11894 22.6623C3.37354 22.7129 3.63744 22.6869 3.87727 22.5876C4.1171 22.4883 4.32209 22.32 4.4663 22.1042C4.61052 21.8883 4.6875 21.6346 4.6875 21.375C4.6875 21.0269 4.54922 20.6931 4.30308 20.4469C4.05694 20.2008 3.7231 20.0625 3.375 20.0625ZM3.375 22.3125C3.18958 22.3125 3.00832 22.2575 2.85415 22.1545C2.69998 22.0515 2.57982 21.9051 2.50886 21.7338C2.43791 21.5625 2.41934 21.374 2.45551 21.1921C2.49169 21.0102 2.58098 20.8432 2.71209 20.7121C2.8432 20.581 3.01025 20.4917 3.1921 20.4555C3.37396 20.4193 3.56246 20.4379 3.73377 20.5089C3.90507 20.5798 4.05149 20.7 4.1545 20.8542C4.25752 21.0083 4.3125 21.1896 4.3125 21.375C4.3125 21.4981 4.28825 21.62 4.24114 21.7338C4.19402 21.8475 4.12497 21.9509 4.03791 22.0379C3.95086 22.125 3.84751 22.194 3.73377 22.2411C3.62002 22.2883 3.49811 22.3125 3.375 22.3125Z" fill="#444444"/>
<path d="M9.75 21.9375H6.375C6.22582 21.9375 6.08274 21.8782 5.97725 21.7727C5.87176 21.6673 5.8125 21.5242 5.8125 21.375C5.8125 21.2258 5.87176 21.0827 5.97725 20.9773C6.08274 20.8718 6.22582 20.8125 6.375 20.8125H9.375C9.42473 20.8125 9.47242 20.7927 9.50758 20.7576C9.54275 20.7224 9.5625 20.6747 9.5625 20.625C9.5625 20.5753 9.54275 20.5276 9.50758 20.4924C9.47242 20.4573 9.42473 20.4375 9.375 20.4375H6.375C6.12636 20.4375 5.8879 20.5363 5.71209 20.7121C5.53627 20.8879 5.4375 21.1264 5.4375 21.375C5.4375 21.6236 5.53627 21.8621 5.71209 22.0379C5.8879 22.2137 6.12636 22.3125 6.375 22.3125H9.75C9.79973 22.3125 9.84742 22.2927 9.88258 22.2576C9.91775 22.2224 9.9375 22.1747 9.9375 22.125C9.9375 22.0753 9.91775 22.0276 9.88258 21.9924C9.84742 21.9573 9.79973 21.9375 9.75 21.9375Z" fill="#444444"/>
</g>
<defs>
<clipPath id="clip0_40_1341">
<rect width="24" height="24" fill="white"/>
</clipPath>
</defs>
</svg>
