<svg width="16" height="19" viewBox="0 0 16 19" fill="none" xmlns="http://www.w3.org/2000/svg">
<path d="M13.7778 0.877991H2.22221C0.997333 0.877991 0 1.72239 0 2.75944V17.0585C0 18.0956 0.997333 18.94 2.22221 18.94H13.7778C15.0027 18.94 16 18.0956 16 17.0585V2.75944C16 1.72239 15.0027 0.877991 13.7778 0.877991ZM8 17.8111C7.51021 17.8111 7.11113 17.4732 7.11113 17.0585C7.11113 16.6439 7.51025 16.306 8 16.306C8.48975 16.306 8.88888 16.6439 8.88888 17.0585C8.88888 17.4732 8.48979 17.8111 8 17.8111ZM14.2222 15.5534C14.2222 15.7611 14.0231 15.9297 13.7778 15.9297H2.22221C1.97688 15.9297 1.77775 15.7611 1.77775 15.5534V2.75944C1.77775 2.55172 1.97688 2.38313 2.22221 2.38313H13.7778C14.0231 2.38313 14.2222 2.55172 14.2222 2.75944V15.5534Z" fill="#444444"/>
</svg>
