<svg width="18" height="22" viewBox="0 0 18 22" fill="none" xmlns="http://www.w3.org/2000/svg">
<path fill-rule="evenodd" clip-rule="evenodd" d="M8.04206 4.26667V14.3019V14.3021H3.50415V7.39113C2.12381 7.32013 0.865269 6.58597 0.104796 5.39661C0.0363073 5.28969 0 5.16498 0 5.03742V2.17882C0 2.05126 0.0363073 1.92655 0.104796 1.81963C0.840184 0.669548 2.10335 0.023506 3.66159 0.000511028C4.86584 -0.0172807 5.98707 0.43003 6.81521 1.26003C7.60638 2.05328 8.04206 3.12095 8.04206 4.26667ZM2.15253 3.60619C2.16837 3.9632 2.43721 4.26499 2.80028 4.26499C3.13909 4.26499 3.46371 3.96203 3.44804 3.60619C3.43236 3.24935 3.16335 2.94756 2.80028 2.94756C2.46147 2.94756 2.13685 3.25053 2.15253 3.60619ZM5.7732 22C5.4154 22 5.12544 21.7051 5.12544 21.3412V18.1817H6.42095V21.3412C6.42095 21.7051 6.13082 22 5.7732 22ZM3.50415 15.6195H8.04206V16.8642H3.50415V15.6195ZM14.3384 0.000510048C15.8967 0.023505 17.1598 0.669547 17.8954 1.81963C17.9635 1.92655 18 2.05126 18 2.17882V5.03742C18 5.16498 17.9637 5.28969 17.8954 5.39661C17.1347 6.58597 15.8762 7.32013 14.4959 7.39113V14.3021H9.95793V4.26684C9.95793 3.12095 10.3936 2.05327 11.185 1.2602C12.0129 0.430197 13.1322 -0.0171139 14.3384 0.000510048ZM14.552 3.60619C14.5676 3.9632 14.8366 4.26499 15.1997 4.26499C15.5385 4.26499 15.8632 3.96203 15.8475 3.60619C15.8316 3.24935 15.5628 2.94756 15.1997 2.94756C14.8609 2.94756 14.5363 3.25052 14.552 3.60619ZM9.95793 15.6195H14.4957V16.8642H9.95793V15.6195ZM12.2268 22C11.8692 22 11.579 21.7051 11.579 21.3412V18.1817H12.8746V21.3412C12.8746 21.7051 12.5846 22 12.2268 22Z" fill="#444444"/>
</svg>
