<svg width="104" height="128" viewBox="0 0 104 128" fill="none" xmlns="http://www.w3.org/2000/svg">
<g clip-path="url(#clip0_1086_3787)">
<g filter="url(#filter0_d_1086_3787)">
<path d="M52.828 3.21953C55.5971 5.5688 70.9241 18.584 92.6615 12.539C92.6627 12.5386 92.664 12.5395 92.664 12.5409C92.664 12.5422 92.6653 12.5431 92.6665 12.5428C92.8694 12.4853 93.0773 12.4468 93.2874 12.4277C94.1952 12.3462 95.0986 12.6241 95.8012 13.201C96.5038 13.7779 96.9486 14.607 97.0389 15.5081L97.0494 15.6094C97.2795 18.0236 101.57 62.666 89.8156 83.4063C78.6648 103.096 54.926 119.46 52.2722 121.254C52.1941 121.312 52.1161 121.374 52.0333 121.428L52.0306 121.429C52.0282 121.43 52.0253 121.429 52.0239 121.427C52.0224 121.425 52.0191 121.424 52.0166 121.426C51.4481 121.801 50.7805 122.001 50.0979 122C49.4135 121.999 48.7446 121.797 48.1758 121.419C48.1012 121.369 22.2114 104.277 10.3837 83.4092C-0.813106 63.6529 2.13379 27.8956 3.00247 17.3608C3.07028 16.5374 3.13118 15.8057 3.145 15.6118C3.14513 15.61 3.14661 15.6088 3.14841 15.6088C3.15022 15.6088 3.15172 15.6074 3.15184 15.6056C3.17747 15.241 3.26219 14.8828 3.40273 14.545C3.5753 14.1275 3.82898 13.7479 4.14927 13.4279C4.46956 13.1079 4.85019 12.8537 5.2694 12.6799C5.68861 12.506 6.13819 12.416 6.59245 12.4148C7.04671 12.4136 7.49675 12.5014 7.91686 12.6731C22.3944 18.6168 43.4665 5.50869 47.5349 2.97874C48.5376 2.35421 49.1191 2 50.0985 2C51.4385 2 51.9098 2.43989 52.828 3.21953Z" fill="url(#paint0_linear_1086_3787)"/>
</g>
<path d="M90.4862 20.1154C69.9087 24.1092 54.9704 13.7891 49.7949 9.6582C43.5953 13.4204 25.2982 23.6988 9.71077 20.3863C8.75003 32.7148 6.98645 63.3867 16.4266 80.0418C25.5918 96.2164 44.101 110.134 50.0956 114.379C56.0966 110.131 74.6163 96.1956 83.771 80.0418C92.787 64.1357 91.3094 31.4293 90.4856 20.1154H90.4862Z" fill="white"/>
<g filter="url(#filter1_d_1086_3787)">
<path fill-rule="evenodd" clip-rule="evenodd" d="M38.6595 28.4853C39.1976 27.5654 40.1833 27 41.2491 27H50H58.7509C59.8167 27 60.8024 27.5654 61.3405 28.4854L65.7359 36L70.1141 43.4854C70.6613 44.421 70.6613 45.579 70.1141 46.5147L65.7359 54L61.3405 61.5147C60.8024 62.4346 59.8167 63 58.7509 63H50H41.2491C40.1833 63 39.1976 62.4346 38.6595 61.5146L34.2642 54L29.8859 46.5146C29.3387 45.579 29.3387 44.421 29.8859 43.4853L34.2642 36L38.6595 28.4853ZM50 32.087C57.1887 32.087 63.0189 37.8447 63.0189 44.9441C63.0189 52.0435 57.1887 57.8012 50 57.8012C42.8113 57.8012 36.9811 52.0435 36.9811 44.9441C36.9811 37.8447 42.8113 32.087 50 32.087Z" fill="url(#paint1_linear_1086_3787)"/>
</g>
<g filter="url(#filter2_d_1086_3787)">
<path d="M30.5156 74.1118C28.6479 74.1118 27.5859 75.4961 27.5859 77.7007V78.499C27.5859 80.7183 28.6553 82.0952 30.5156 82.0952C31.7095 82.0952 32.5371 81.5093 32.7642 80.7915H32.8447V82H34.8809V71.4751H32.8154V75.3569H32.7349C32.4712 74.6392 31.6802 74.1118 30.5156 74.1118ZM31.2407 75.7451C32.2075 75.7451 32.8154 76.5068 32.8154 77.8252V78.3599C32.8154 79.7295 32.2148 80.4692 31.2627 80.4692C30.252 80.4692 29.7026 79.6636 29.7026 78.3525V77.8545C29.7026 76.5581 30.2373 75.7451 31.2407 75.7451ZM44.7905 75.2324C44.7246 73.4966 43.4282 71.812 40.7915 71.812C38.0669 71.812 36.4629 73.5991 36.4629 76.3457V77.5908C36.4629 80.2202 37.7739 82.1904 40.7549 82.1904C43.7505 82.1904 44.8052 80.1689 44.8052 78.5576V76.5801H40.8354V78.1328H42.791V78.6968C42.791 79.6489 42.022 80.4253 40.7842 80.4253C39.2168 80.4253 38.6016 79.2314 38.6016 77.5835V76.3604C38.6016 74.4487 39.5024 73.5771 40.7622 73.5771C41.8169 73.5771 42.6006 74.1851 42.7251 75.2324H44.7905ZM48.2256 76.3896C48.2256 74.5293 49.1338 73.5625 50.4082 73.5625C51.6899 73.5625 52.5908 74.5293 52.5908 76.3896V77.6641C52.5908 79.5317 51.6899 80.4326 50.4082 80.4326C49.1338 80.4326 48.2256 79.5317 48.2256 77.6641V76.3896ZM46.0723 77.6567C46.0723 80.4766 47.6836 82.1904 50.4009 82.1904C53.1255 82.1904 54.7515 80.4766 54.7515 77.6567V76.4116C54.7515 73.5845 53.1401 71.812 50.4155 71.812C47.6982 71.812 46.0723 73.5698 46.0723 76.4116V77.6567ZM62.7129 80.2056H58.5454V72.0024H56.4214V82H62.7129V80.2056ZM63.98 72.0024V82H67.7227C70.96 82 72.2051 79.9053 72.2051 76.9683C72.2051 74.0239 70.9526 72.0024 67.7227 72.0024H63.98ZM66.104 73.709H67.415C69.4365 73.709 70.0298 75.1445 70.0298 77.0122C70.0298 79.4585 69.0483 80.2861 67.415 80.2861H66.104V73.709Z" fill="url(#paint2_linear_1086_3787)"/>
</g>
<path d="M41.5 127L50.5933 142.75H32.4067L41.5 127Z" fill="#C4C4C4"/>
</g>
<defs>
<filter id="filter0_d_1086_3787" x="0" y="0" width="104" height="128" filterUnits="userSpaceOnUse" color-interpolation-filters="sRGB">
<feFlood flood-opacity="0" result="BackgroundImageFix"/>
<feColorMatrix in="SourceAlpha" type="matrix" values="0 0 0 0 0 0 0 0 0 0 0 0 0 0 0 0 0 0 127 0" result="hardAlpha"/>
<feOffset dx="2" dy="2"/>
<feGaussianBlur stdDeviation="2"/>
<feComposite in2="hardAlpha" operator="out"/>
<feColorMatrix type="matrix" values="0 0 0 0 0 0 0 0 0 0 0 0 0 0 0 0 0 0 0.12 0"/>
<feBlend mode="normal" in2="BackgroundImageFix" result="effect1_dropShadow_1086_3787"/>
<feBlend mode="normal" in="SourceGraphic" in2="effect1_dropShadow_1086_3787" result="shape"/>
</filter>
<filter id="filter1_d_1086_3787" x="27.4756" y="25" width="49.0488" height="44" filterUnits="userSpaceOnUse" color-interpolation-filters="sRGB">
<feFlood flood-opacity="0" result="BackgroundImageFix"/>
<feColorMatrix in="SourceAlpha" type="matrix" values="0 0 0 0 0 0 0 0 0 0 0 0 0 0 0 0 0 0 127 0" result="hardAlpha"/>
<feOffset dx="2" dy="2"/>
<feGaussianBlur stdDeviation="2"/>
<feComposite in2="hardAlpha" operator="out"/>
<feColorMatrix type="matrix" values="0 0 0 0 0 0 0 0 0 0 0 0 0 0 0 0 0 0 0.12 0"/>
<feBlend mode="normal" in2="BackgroundImageFix" result="effect1_dropShadow_1086_3787"/>
<feBlend mode="normal" in="SourceGraphic" in2="effect1_dropShadow_1086_3787" result="shape"/>
</filter>
<filter id="filter2_d_1086_3787" x="25.5859" y="69.4751" width="52.6191" height="18.7153" filterUnits="userSpaceOnUse" color-interpolation-filters="sRGB">
<feFlood flood-opacity="0" result="BackgroundImageFix"/>
<feColorMatrix in="SourceAlpha" type="matrix" values="0 0 0 0 0 0 0 0 0 0 0 0 0 0 0 0 0 0 127 0" result="hardAlpha"/>
<feOffset dx="2" dy="2"/>
<feGaussianBlur stdDeviation="2"/>
<feComposite in2="hardAlpha" operator="out"/>
<feColorMatrix type="matrix" values="0 0 0 0 0 0 0 0 0 0 0 0 0 0 0 0 0 0 0.12 0"/>
<feBlend mode="normal" in2="BackgroundImageFix" result="effect1_dropShadow_1086_3787"/>
<feBlend mode="normal" in="SourceGraphic" in2="effect1_dropShadow_1086_3787" result="shape"/>
</filter>
<linearGradient id="paint0_linear_1086_3787" x1="19.3268" y1="-38" x2="97.1804" y2="-34.7249" gradientUnits="userSpaceOnUse">
<stop stop-color="#FF6700"/>
<stop offset="1" stop-color="#F9920F"/>
</linearGradient>
<linearGradient id="paint1_linear_1086_3787" x1="36.5805" y1="15" x2="70.5738" y2="17.0854" gradientUnits="userSpaceOnUse">
<stop stop-color="#FF6700"/>
<stop offset="1" stop-color="#F9920F"/>
</linearGradient>
<linearGradient id="paint2_linear_1086_3787" x1="35.3024" y1="62" x2="72.0104" y2="66.9328" gradientUnits="userSpaceOnUse">
<stop stop-color="#FF6700"/>
<stop offset="1" stop-color="#F9920F"/>
</linearGradient>
<clipPath id="clip0_1086_3787">
<rect width="104" height="128" fill="white"/>
</clipPath>
</defs>
</svg>
