<svg width="18" height="18" viewBox="0 0 18 18" fill="none" xmlns="http://www.w3.org/2000/svg">
<circle cx="9" cy="9" r="9" fill="#CC1D24"/>
<path d="M5.53896 4.94683C5.53896 4.94683 4.97369 7.75616 5.2358 8.53115C5.2358 8.53115 5.58317 4.28121 8.92106 1C8.92106 1 8.81369 3.74684 10.5474 5.14057C12.2811 6.53431 12.6726 8.70303 12.6726 8.70303C12.6726 8.70303 12.8684 7.2218 12.2811 4.84995C12.2811 4.84995 15.9663 8.6374 14.2769 12.8655C14.2769 12.8655 12.24 17.5217 6.40738 15.4842C0.574747 13.4467 4.49685 5.67807 5.53896 4.94683Z" fill="#FFB530"/>
<path d="M6.97656 8.93359C6.97656 8.47656 7.15234 8.20703 7.44531 8.20703C7.72656 8.20703 7.90625 8.46484 7.90625 8.94141V8.98438C7.90625 9.45703 7.71875 9.71875 7.44141 9.71875C7.16016 9.71875 6.97656 9.45312 6.97656 8.97656V8.93359ZM6.28516 9.01562C6.28516 9.75781 6.71094 10.3242 7.43359 10.3242C8.1875 10.3242 8.60156 9.71875 8.60156 9.02344V8.90234C8.60156 8.16016 8.16797 7.60547 7.44922 7.60547C6.72656 7.60547 6.28516 8.16406 6.28516 8.89453V9.01562ZM10.1055 11.6719C10.1055 11.2109 10.2812 10.9453 10.5742 10.9453C10.8555 10.9453 11.0352 11.2031 11.0352 11.6758V11.7188C11.0352 12.1953 10.8477 12.457 10.5703 12.457C10.2891 12.457 10.1055 12.1875 10.1055 11.7148V11.6719ZM9.41406 11.7539C9.41406 12.4922 9.83984 13.0625 10.5625 13.0625C11.3164 13.0625 11.7305 12.457 11.7305 11.7578V11.6367C11.7305 10.8945 11.2969 10.3398 10.5781 10.3398C9.85547 10.3398 9.41406 10.9023 9.41406 11.6328V11.7539ZM7.34766 13.0039L9.3125 10.4141L11.457 7.66797H10.6406L8.71484 10.2031L6.53125 13.0039H7.34766Z" fill="white"/>
</svg>
