<svg width="22" height="14" viewBox="0 0 22 14" fill="none" xmlns="http://www.w3.org/2000/svg">
<path d="M19.9623 10.2823V9.57246V5.31165V1.05084C19.9623 0.660879 19.596 0.341003 19.1478 0.341003H2.8522C2.40398 0.341003 2.03669 0.659306 2.03669 1.05084V5.31165V9.57246V10.2823L0 12.4127C0 12.9997 0.546933 13.477 1.22222 13.477H20.7778C21.452 13.477 22 12.9994 22 12.4127L19.9623 10.2823ZM12.6307 13.1232H9.37106C9.25842 13.1232 9.16718 13.0444 9.16718 12.9455C9.16718 12.8467 9.25842 12.7678 9.37106 12.7678H12.631C12.7426 12.7678 12.8349 12.8467 12.8349 12.9455C12.8318 13.0446 12.7423 13.1232 12.6307 13.1232ZM7.64134 12.4134L8.26301 11.7631H13.7357L14.3584 12.4134H7.64134ZM18.8156 9.02638C18.8156 9.36894 18.4955 9.64614 18.1052 9.64614H3.89451C3.50429 9.64614 3.18417 9.36647 3.18417 9.02638V1.59827C3.18417 1.2557 3.50429 0.978508 3.89451 0.978508H18.1055C18.4957 0.978508 18.8158 1.2575 18.8158 1.59827C18.8156 1.59827 18.8156 9.02638 18.8156 9.02638Z" fill="#444444"/>
</svg>
