<svg width="22" height="22" viewBox="0 0 22 22" fill="none" xmlns="http://www.w3.org/2000/svg">
<path fill-rule="evenodd" clip-rule="evenodd" d="M10.6581 0.0981573C10.8671 -0.0327674 11.1327 -0.0327674 11.3417 0.0981573L21.6971 6.54342C21.8853 6.66111 21.9998 6.86757 21.9998 7.08976V8.84081C21.9998 9.07494 21.8727 9.29086 21.6675 9.40477C21.4661 9.51593 21.2158 9.51391 21.0135 9.38715L10.9999 3.15587L0.986297 9.38715C0.787396 9.51176 0.535601 9.51743 0.332318 9.40477C0.127144 9.29086 0 9.07494 0 8.84081V7.08976C0 6.86757 0.114554 6.66111 0.302755 6.54342L10.6581 0.0981573ZM20.7108 21.3555V10.6501C20.5796 10.6034 20.4486 10.5547 20.3293 10.48L10.9999 4.67615L1.66924 10.4807C1.55073 10.555 1.41998 10.6036 1.28905 10.6503V21.3555C1.28905 21.7165 1.5726 22 1.93358 22H20.0662C20.4272 22 20.7108 21.7165 20.7108 21.3555ZM10.9999 18.0469C9.93369 18.0469 9.06633 17.1796 9.06633 16.1134C9.06633 15.0471 9.93369 14.1798 10.9999 14.1798C12.0661 14.1798 12.9335 15.0471 12.9335 16.1134C12.9335 17.1796 12.0661 18.0469 10.9999 18.0469ZM14.1886 13.8355C13.9368 14.0872 13.5289 14.0872 13.2772 13.8355C12.0586 12.6169 9.94186 12.6169 8.72203 13.8355C8.47027 14.0872 8.06238 14.0872 7.81062 13.8355C7.55887 13.5837 7.55887 13.1752 7.81062 12.9241C9.51763 11.2184 12.4828 11.2184 14.1886 12.9241C14.4403 13.1759 14.4403 13.5837 14.1886 13.8355ZM16.0126 12.014C15.7609 12.2657 15.353 12.2657 15.1012 12.014C14.0048 10.9169 12.5489 10.3126 10.9999 10.3126C9.4509 10.3126 7.99504 10.9169 6.89862 12.014C6.64687 12.2657 6.23897 12.2657 5.98722 12.014C5.73547 11.7628 5.73547 11.3543 5.98722 11.1026C7.32663 9.76189 9.10664 9.02357 10.9999 9.02357C12.8932 9.02357 14.6732 9.76189 16.0126 11.1026C16.2644 11.3543 16.2644 11.7628 16.0126 12.014ZM10.9999 16.7579C11.3559 16.7579 11.6444 16.4693 11.6444 16.1134C11.6444 15.7574 11.3559 15.4688 10.9999 15.4688C10.6439 15.4688 10.3554 15.7574 10.3554 16.1134C10.3554 16.4693 10.6439 16.7579 10.9999 16.7579Z" fill="#444444"/>
</svg>
