<svg width="24" height="24" viewBox="0 0 24 24" fill="none" xmlns="http://www.w3.org/2000/svg">
<path d="M12 0L13.8754 1.36408L16.1042 0.723688L17.4 2.64693L19.7135 2.80747L20.2733 5.05789L22.3923 6L22.1487 8.30618L23.8177 9.91622L22.8 12L23.8177 14.0838L22.1487 15.6938L22.3923 18L20.2733 18.9421L19.7135 21.1925L17.4 21.3531L16.1042 23.2763L13.8754 22.6359L12 24L10.1246 22.6359L7.89576 23.2763L6.6 21.3531L4.28655 21.1925L3.72672 18.9421L1.6077 18L1.85132 15.6938L0.182307 14.0838L1.2 12L0.182307 9.91622L1.85132 8.30618L1.6077 6L3.72672 5.05789L4.28655 2.80747L6.6 2.64693L7.89576 0.723688L10.1246 1.36408L12 0Z" fill="#444444"/>
<path d="M8.62549 10.9995L10.6558 8.17969H12.2563L9.30762 12.1167L11.0156 16H9.54395L8.3623 13.1372L6.27832 16H4.67236L7.68555 11.9985L6.01514 8.17969H7.47607L8.62549 10.9995ZM16.6069 14.1792H13.6797L12.7451 16H11.3164L15.5381 8.17969H16.7305L18.2451 16H16.9131L16.6069 14.1792ZM14.2383 13.0835H16.4297L15.8979 9.8501L14.2383 13.0835ZM15.8228 7.56738L15.8979 6.7832L16.1504 6.75635C16.4906 6.71696 16.6768 6.59342 16.709 6.38574C16.7448 6.1709 16.5711 6.05632 16.188 6.04199L16.0054 6.03662L16.0967 5.37061L16.3115 5.38135C17.2712 5.46012 17.7456 5.78776 17.7349 6.36426C17.7241 6.81185 17.4323 7.08936 16.8594 7.19678L16.8057 7.57275L15.8228 7.56738Z" fill="white"/>
</svg>
