<svg width="33" height="35" viewBox="0 0 33 35" fill="none" xmlns="http://www.w3.org/2000/svg">
<path d="M23.7734 13.9043C23.7734 13.4805 23.5137 13.1113 23.1309 12.9473C20.5605 11.8672 18.5508 9.87109 17.457 7.30078C17.293 6.9043 16.9102 6.6582 16.4863 6.6582C16.0625 6.6582 15.6934 6.9043 15.5156 7.30078C14.4355 9.85742 12.4258 11.8535 9.86914 12.9336C9.48633 13.0977 9.22656 13.4668 9.22656 13.8906C9.22656 14.3145 9.47266 14.6836 9.85547 14.8613C12.3164 15.9414 14.3672 18.0195 15.502 20.5762C15.666 20.959 16.0488 21.2051 16.459 21.2051C16.8691 21.2051 17.252 20.959 17.416 20.5625C18.4824 18.0879 20.5742 16.0098 23.1309 14.875C23.5273 14.6973 23.7734 14.3145 23.7734 13.9043ZM16.459 19.5098C15.2422 17.0762 13.2598 15.0801 10.9082 13.9043C13.3418 12.7285 15.2969 10.7871 16.4727 8.35352C17.6621 10.8008 19.6172 12.7559 22.0781 13.918C19.6445 15.1484 17.6348 17.1445 16.459 19.5098Z" fill="#444444"/>
<path d="M23.0353 24.7188C23.1584 24.7598 23.3224 24.8145 23.5275 24.8008C23.8557 24.7871 24.1564 24.6504 24.3889 24.418C24.6349 24.1719 24.7717 23.8438 24.758 23.502C24.7307 21.3418 26.0978 19.4551 28.1486 18.8125C28.2853 18.7715 28.4357 18.7031 28.5451 18.6074C28.8185 18.4024 28.9963 18.1016 29.0373 17.7871C29.092 17.4453 29.0099 17.1035 28.8049 16.8164C27.5197 15.0801 27.506 12.7559 28.7912 11.0469L28.9553 10.8555L29.0236 10.6504C29.133 10.3223 29.092 9.96681 28.9416 9.6797C28.7775 9.36525 28.5041 9.13283 28.1896 9.03712C26.1389 8.38087 24.7853 6.50783 24.799 4.36134C24.799 4.19728 24.7717 4.04689 24.7307 3.91017C24.6213 3.59572 24.3889 3.33595 24.0744 3.17189C23.7599 3.0215 23.4318 3.00783 23.1174 3.1172C22.6115 3.29494 22.092 3.37697 21.5588 3.37697C19.9865 3.37697 18.51 2.61134 17.6076 1.33986C17.5119 1.21681 17.4025 1.10744 17.3068 1.03908C16.7326 0.628922 15.926 0.76564 15.5158 1.33986C14.6135 2.62502 13.1369 3.37697 11.5646 3.37697C11.0314 3.37697 10.5119 3.29494 10.0197 3.1172C9.58222 2.96681 9.02167 3.07619 8.69355 3.43166C8.44745 3.67775 8.31073 4.00587 8.3244 4.34767C8.35175 6.50783 6.98456 8.38087 4.94745 9.02345C4.79706 9.06447 4.67401 9.13283 4.5373 9.22853C3.97675 9.65236 3.8537 10.459 4.27753 11.0332C5.56269 12.7695 5.56269 15.0938 4.27753 16.8301C4.1955 16.9395 4.12714 17.0762 4.08612 17.1992C3.99042 17.5274 4.01776 17.8555 4.18183 18.1836C4.34589 18.4844 4.61933 18.7168 4.93378 18.8125C6.98456 19.4688 8.33808 21.3555 8.31073 23.4746C8.29706 23.6387 8.3244 23.7891 8.37909 23.9395C8.48847 24.2539 8.72089 24.5137 9.03534 24.6778C9.3498 24.8281 9.67792 24.8418 9.99237 24.7324C10.5119 24.5547 11.0451 24.4727 11.5783 24.4727C13.1642 24.4727 14.5861 25.2246 15.5158 26.5235C15.5978 26.6328 15.7072 26.7422 15.8166 26.8242C16.0353 26.9883 16.2951 27.0703 16.5549 27.0703C16.6232 27.0703 16.7053 27.0703 16.7736 27.0567C17.1154 27.002 17.4162 26.8106 17.6076 26.5371C18.7834 24.7598 20.9846 24.0352 23.0353 24.7188ZM16.5139 25.7578C15.3654 24.1309 13.4924 23.1602 11.51 23.1602C10.84 23.1602 10.1701 23.2695 9.5412 23.5156C9.58222 20.7949 7.84589 18.4024 5.2619 17.6094C6.88886 15.4082 6.88886 12.4551 5.24823 10.2949C7.84589 9.4883 9.58222 7.12306 9.56855 4.38869C10.1838 4.59377 10.84 4.70314 11.4963 4.70314C13.4924 4.70314 15.3654 3.73244 16.4728 2.10548C17.6213 3.73244 19.508 4.70314 21.5041 4.70314C22.174 4.70314 22.8439 4.59377 23.4455 4.36134C23.4182 7.0547 25.1271 9.41994 27.6974 10.2676C26.0978 12.4551 26.0978 15.3672 27.6974 17.5684C25.1135 18.4024 23.3908 20.7813 23.4455 23.4746H23.4318C20.8615 22.5996 18.0451 23.5156 16.5139 25.7578Z" fill="#444444"/>
<path d="M12.248 26.4551C11.9473 26.2637 11.5371 26.3457 11.3457 26.6465L8.14648 31.541L6.38281 27.9316L2.71875 27.918L6.06836 22.791C6.27344 22.4902 6.17773 22.0801 5.87695 21.8887C5.57617 21.6836 5.16602 21.7793 4.97461 22.0801L0.298828 29.2305L5.57617 29.2441L7.99609 34.1934L12.4531 27.3574C12.6445 27.0566 12.5488 26.6465 12.248 26.4551Z" fill="#444444"/>
<path d="M28.0256 22.0665C27.8205 21.7657 27.424 21.6837 27.1232 21.8751C26.8224 22.0801 26.7404 22.4766 26.9318 22.7774L30.2951 27.918L26.631 27.9317L24.8674 31.5411L21.6545 26.6329C21.4494 26.3321 21.0529 26.2501 20.7521 26.4415C20.4514 26.6465 20.3693 27.043 20.5607 27.3438L25.0314 34.1934L27.4514 29.2442L32.7287 29.2305L28.0256 22.0665Z" fill="#444444"/>
</svg>
