<svg width="67" height="13" viewBox="0 0 67 13" fill="none" xmlns="http://www.w3.org/2000/svg">
<path d="M13 5.05469C13 4.82031 12.75 4.72656 12.5625 4.69531L8.64062 4.125L6.88281 0.570312C6.8125 0.421875 6.67969 0.25 6.5 0.25C6.32031 0.25 6.1875 0.421875 6.11719 0.570312L4.35938 4.125L0.4375 4.69531C0.242188 4.72656 0 4.82031 0 5.05469C0 5.19531 0.101563 5.32812 0.195313 5.42969L3.03906 8.19531L2.36719 12.1016C2.35938 12.1562 2.35156 12.2031 2.35156 12.2578C2.35156 12.4609 2.45312 12.6484 2.67969 12.6484C2.78906 12.6484 2.89062 12.6094 2.99219 12.5547L6.5 10.7109L10.0078 12.5547C10.1016 12.6094 10.2109 12.6484 10.3203 12.6484C10.5469 12.6484 10.6406 12.4609 10.6406 12.2578C10.6406 12.2031 10.6406 12.1562 10.6328 12.1016L9.96094 8.19531L12.7969 5.42969C12.8984 5.32812 13 5.19531 13 5.05469Z" fill="#F9920F"/>
<path d="M31 5.05469C31 4.82031 30.75 4.72656 30.5625 4.69531L26.6406 4.125L24.8828 0.570312C24.8125 0.421875 24.6797 0.25 24.5 0.25C24.3203 0.25 24.1875 0.421875 24.1172 0.570312L22.3594 4.125L18.4375 4.69531C18.2422 4.72656 18 4.82031 18 5.05469C18 5.19531 18.1016 5.32812 18.1953 5.42969L21.0391 8.19531L20.3672 12.1016C20.3594 12.1562 20.3516 12.2031 20.3516 12.2578C20.3516 12.4609 20.4531 12.6484 20.6797 12.6484C20.7891 12.6484 20.8906 12.6094 20.9922 12.5547L24.5 10.7109L28.0078 12.5547C28.1016 12.6094 28.2109 12.6484 28.3203 12.6484C28.5469 12.6484 28.6406 12.4609 28.6406 12.2578C28.6406 12.2031 28.6406 12.1562 28.6328 12.1016L27.9609 8.19531L30.7969 5.42969C30.8984 5.32812 31 5.19531 31 5.05469Z" fill="#F9920F"/>
<path d="M49 5.05469C49 4.82031 48.75 4.72656 48.5625 4.69531L44.6406 4.125L42.8828 0.570312C42.8125 0.421875 42.6797 0.25 42.5 0.25C42.3203 0.25 42.1875 0.421875 42.1172 0.570312L40.3594 4.125L36.4375 4.69531C36.2422 4.72656 36 4.82031 36 5.05469C36 5.19531 36.1016 5.32812 36.1953 5.42969L39.0391 8.19531L38.3672 12.1016C38.3594 12.1562 38.3516 12.2031 38.3516 12.2578C38.3516 12.4609 38.4531 12.6484 38.6797 12.6484C38.7891 12.6484 38.8906 12.6094 38.9922 12.5547L42.5 10.7109L46.0078 12.5547C46.1016 12.6094 46.2109 12.6484 46.3203 12.6484C46.5469 12.6484 46.6406 12.4609 46.6406 12.2578C46.6406 12.2031 46.6406 12.1562 46.6328 12.1016L45.9609 8.19531L48.7969 5.42969C48.8984 5.32812 49 5.19531 49 5.05469Z" fill="#F9920F"/>
<path d="M67 5.05469C67 4.82031 66.75 4.72656 66.5625 4.69531L62.6406 4.125L60.8828 0.570312C60.8125 0.421875 60.6797 0.25 60.5 0.25C60.3203 0.25 60.1875 0.421875 60.1172 0.570312L58.3594 4.125L54.4375 4.69531C54.2422 4.72656 54 4.82031 54 5.05469C54 5.19531 54.1016 5.32812 54.1953 5.42969L57.0391 8.19531L56.3672 12.1016C56.3594 12.1562 56.3516 12.2031 56.3516 12.2578C56.3516 12.4609 56.4531 12.6484 56.6797 12.6484C56.7891 12.6484 56.8906 12.6094 56.9922 12.5547L60.5 10.7109L64.0078 12.5547C64.1016 12.6094 64.2109 12.6484 64.3203 12.6484C64.5469 12.6484 64.6406 12.4609 64.6406 12.2578C64.6406 12.2031 64.6406 12.1562 64.6328 12.1016L63.9609 8.19531L66.7969 5.42969C66.8984 5.32812 67 5.19531 67 5.05469Z" fill="#F9920F"/>
</svg>
