<svg width="16" height="16" viewBox="0 0 16 16" fill="none" xmlns="http://www.w3.org/2000/svg">
<circle cx="8" cy="8" r="8" fill="#FF6600"/>
<path d="M12 10.3182C12 10.2784 12 10.2386 11.983 10.1989C11.9432 10.0795 11.6648 9.95455 11.5511 9.89773C11.2273 9.71591 10.8977 9.53977 10.5795 9.35227C10.4318 9.26136 10.25 9.09091 10.0739 9.09091C9.72727 9.09091 9.22159 10.1193 8.91477 10.1193C8.76136 10.1193 8.5625 9.97727 8.42614 9.89773C7.39205 9.32386 6.67614 8.60795 6.10227 7.57386C6.02273 7.4375 5.88068 7.23864 5.88068 7.08523C5.88068 6.77841 6.90909 6.27273 6.90909 5.92614C6.90909 5.75 6.73864 5.56818 6.64773 5.42045C6.46023 5.10227 6.28409 4.77273 6.10227 4.44886C6.04545 4.33523 5.92045 4.05682 5.80114 4.01705C5.76136 4 5.72159 4 5.68182 4C5.47727 4 5.07955 4.09091 4.89205 4.17614C4.61364 4.29545 4.43182 4.61364 4.28977 4.86932C4.10795 5.20455 4 5.54545 4 5.92614C4 6.45455 4.21591 6.93182 4.39205 7.41477C4.51705 7.76136 4.67045 8.09659 4.86364 8.40909C5.46023 9.375 6.625 10.5398 7.59091 11.1364C7.90341 11.3295 8.23864 11.483 8.58523 11.608C9.06818 11.7841 9.54545 12 10.0739 12C10.4545 12 10.7955 11.892 11.1307 11.7102C11.3864 11.5682 11.7045 11.3864 11.8239 11.108C11.9091 10.9205 12 10.5227 12 10.3182Z" fill="white"/>
</svg>
