<svg width="14" height="14" viewBox="0 0 14 14" fill="none" xmlns="http://www.w3.org/2000/svg">
<path d="M7 14C5.61553 14 4.26215 13.5895 3.11101 12.8203C1.95987 12.0511 1.06266 10.9579 0.532846 9.67879C0.00303306 8.3997 -0.13559 6.99224 0.134506 5.63437C0.404603 4.2765 1.07129 3.02922 2.05026 2.05026C3.02922 1.07129 4.2765 0.404603 5.63437 0.134506C6.99224 -0.13559 8.3997 0.00303306 9.67879 0.532846C10.9579 1.06266 12.0511 1.95987 12.8203 3.11101C13.5895 4.26215 14 5.61553 14 7C14 8.85652 13.2625 10.637 11.9497 11.9497C10.637 13.2625 8.85652 14 7 14ZM7 0.933336C5.80013 0.933336 4.6272 1.28914 3.62954 1.95575C2.63188 2.62237 1.85431 3.56985 1.39513 4.67839C0.935962 5.78693 0.815822 7.00673 1.04991 8.18355C1.28399 9.36037 1.86178 10.4413 2.71022 11.2898C3.55866 12.1382 4.63964 12.716 5.81645 12.9501C6.99327 13.1842 8.21308 13.064 9.32161 12.6049C10.4302 12.1457 11.3776 11.3681 12.0442 10.3705C12.7109 9.3728 13.0667 8.19987 13.0667 7C13.0667 5.39102 12.4275 3.84794 11.2898 2.71022C10.1521 1.5725 8.60898 0.933336 7 0.933336Z" fill="#20863D"/>
<path d="M5.91267 9.80004C5.84868 9.79984 5.78542 9.78647 5.72681 9.76079C5.66821 9.7351 5.61551 9.69763 5.572 9.65071L3.39267 7.31738C3.3182 7.22555 3.28137 7.10887 3.28961 6.99093C3.29785 6.87299 3.35055 6.76257 3.43706 6.68198C3.52357 6.6014 3.63745 6.55665 3.75568 6.55679C3.8739 6.55692 3.98768 6.60193 4.074 6.68271L5.91267 8.64738L9.926 4.34938C9.9663 4.29968 10.0164 4.25881 10.0731 4.22929C10.1299 4.19976 10.1921 4.18223 10.2559 4.17777C10.3198 4.17331 10.3838 4.18202 10.4441 4.20337C10.5045 4.22471 10.5597 4.25822 10.6066 4.30183C10.6534 4.34544 10.6907 4.39821 10.7163 4.45686C10.7418 4.51551 10.7551 4.57879 10.7551 4.64277C10.7552 4.70675 10.7421 4.77006 10.7167 4.82877C10.6913 4.88748 10.654 4.94033 10.6073 4.98405L6.25334 9.65071C6.20982 9.69763 6.15713 9.7351 6.09852 9.76079C6.03992 9.78647 5.97666 9.79984 5.91267 9.80004Z" fill="#20863D"/>
</svg>
