<svg width="42" height="36" viewBox="0 0 42 36" fill="none" xmlns="http://www.w3.org/2000/svg">
<path fill-rule="evenodd" clip-rule="evenodd" d="M10.5283 0H21H31.4717L36.7359 9L42 18L36.7359 27L31.4717 36H21H10.5283L5.26415 27L0 18L5.26415 9L10.5283 0ZM21 5.08696C28.1887 5.08696 34.0189 10.8447 34.0189 17.9441C34.0189 25.0435 28.1887 30.8012 21 30.8012C13.8113 30.8012 7.98113 25.0435 7.98113 17.9441C7.98113 10.8447 13.8113 5.08696 21 5.08696Z" fill="#FF6700"/>
<path d="M23.854 14.4801H16.814V15.1201H23.854V14.4801Z" fill="#FF6700"/>
<path d="M23.854 16.4H16.814V17.04H23.854V16.4Z" fill="#FF6700"/>
<path d="M22.254 18.3201H16.814V18.9601H22.254V18.3201Z" fill="#FF6700"/>
<path d="M20.654 20.2401H16.814V20.8801H20.654V20.2401Z" fill="#FF6700"/>
<path d="M20.654 22.16H16.814V22.8H20.654V22.16Z" fill="#FF6700"/>
<path d="M26.4139 15.9476V12.7476L23.9864 10.3201H14.2539V25.6801H26.4139V20.0525L29.7464 16.7201L27.6939 14.6676L26.4139 15.9476ZM26.0939 17.1725L27.2414 18.3201L23.4014 22.1601H22.2539V21.0125L26.0939 17.1725ZM24.1739 11.4125L25.3214 12.5601H24.1739V11.4125ZM25.7739 25.0401H14.8939V10.9601H23.5339V13.2001H25.7739V16.5876L21.6139 20.7476V22.8001H23.6664L25.7739 20.6925V25.0401ZM27.6939 17.8676L26.5464 16.7201L27.6939 15.5725L28.8414 16.7201L27.6939 17.8676Z" fill="#FF6700"/>
</svg>
