<svg width="24" height="20" viewBox="0 0 24 20" fill="none" xmlns="http://www.w3.org/2000/svg">
<path fill-rule="evenodd" clip-rule="evenodd" d="M6.48285 0H12.3005H18.1181L21.0426 5L23.9671 10L21.0426 15L18.1181 20H12.3005H6.48285L3.55832 15L0.633789 10L3.55832 5L6.48285 0V0ZM12.3005 2.82609C16.2942 2.82609 19.5332 6.02484 19.5332 9.96894C19.5332 13.913 16.2942 17.1118 12.3005 17.1118C8.30675 17.1118 5.06775 13.913 5.06775 9.96894C5.06775 6.02484 8.30675 2.82609 12.3005 2.82609V2.82609Z" fill="#FF6700"/>
<path fill-rule="evenodd" clip-rule="evenodd" d="M12.3318 5.99365C14.5645 5.99365 16.357 7.76384 16.357 9.96881C16.357 12.1738 14.5645 13.944 12.3318 13.944C10.0991 13.944 8.30664 12.1738 8.30664 9.96881C8.30664 7.76384 10.0991 5.99365 12.3318 5.99365Z" fill="#60BB22"/>
<path d="M9.40764 8.01249C10.5083 6.42864 12.7095 6.02492 14.3133 7.11187C15.9171 8.19883 16.3259 10.3727 15.2252 11.9566C14.1246 13.5404 11.9234 13.9442 10.3196 12.8572C8.71581 11.7703 8.30701 9.59634 9.40764 8.01249Z" fill="white"/>
<path d="M10.6026 12.4533C9.25043 11.5216 8.90452 9.62717 9.84791 8.29176C10.7913 6.9253 12.6781 6.58369 14.0618 7.51537C15.4454 8.4781 15.7913 10.2793 14.8479 11.6458C13.8731 13.0123 12.0177 13.3539 10.6341 12.4222L10.6026 12.4533Z" fill="#60BB22"/>
<path d="M11.1679 11.6151C10.256 10.9939 10.0044 9.75171 10.6333 8.85109C11.2623 7.95047 12.5201 7.73308 13.4321 8.32314C14.344 8.94426 14.5956 10.1865 13.9667 11.0871C13.3377 12.0188 12.0799 12.2362 11.1679 11.6151Z" fill="#20863D"/>
<path d="M14.0301 8.72671C14.093 9.06832 13.8729 9.37888 13.5269 9.44099C13.181 9.50311 12.8666 9.28571 12.8037 8.9441C12.7408 8.60248 12.9609 8.29193 13.3068 8.22981C13.6527 8.1677 13.9672 8.38509 14.0301 8.72671Z" fill="white"/>
<path d="M13.1495 9.75154C13.1809 9.93788 13.0551 10.1553 12.8665 10.1863C12.6778 10.2174 12.4576 10.0932 12.4262 9.90682C12.3948 9.72049 12.5205 9.5031 12.7092 9.47204C12.8979 9.44099 13.118 9.56521 13.1495 9.75154Z" fill="white"/>
</svg>
