<svg width="14" height="14" viewBox="0 0 14 14" fill="none" xmlns="http://www.w3.org/2000/svg">
<path d="M7 14C5.61553 14 4.26215 13.5895 3.11101 12.8203C1.95987 12.0511 1.06266 10.9579 0.532846 9.67879C0.00303306 8.3997 -0.13559 6.99224 0.134506 5.63437C0.404603 4.2765 1.07129 3.02922 2.05026 2.05026C3.02922 1.07129 4.2765 0.404603 5.63437 0.134506C6.99224 -0.13559 8.3997 0.00303306 9.67879 0.532846C10.9579 1.06266 12.0511 1.95987 12.8203 3.11101C13.5895 4.26215 14 5.61553 14 7C14 8.85652 13.2625 10.637 11.9497 11.9497C10.637 13.2625 8.85652 14 7 14ZM7 0.933336C5.80013 0.933336 4.6272 1.28914 3.62954 1.95575C2.63188 2.62237 1.85431 3.56985 1.39513 4.67839C0.935962 5.78693 0.815822 7.00673 1.04991 8.18355C1.28399 9.36037 1.86178 10.4413 2.71022 11.2898C3.55866 12.1382 4.63964 12.716 5.81645 12.9501C6.99327 13.1842 8.21308 13.064 9.32161 12.6049C10.4302 12.1457 11.3776 11.3681 12.0442 10.3705C12.7109 9.3728 13.0667 8.19987 13.0667 7C13.0667 5.39102 12.4275 3.84794 11.2898 2.71022C10.1521 1.5725 8.60898 0.933336 7 0.933336Z" fill="#444444"/>
<path d="M4 4.60429L4.60429 4L7 6.39571L9.39571 4L10 4.60429L7.60429 7L10 9.39571L9.39571 10L7 7.60429L4.60429 10L4 9.39571L6.39571 7L4 4.60429Z" fill="#444444"/>
</svg>
