<svg width="22" height="18" viewBox="0 0 22 18" fill="none" xmlns="http://www.w3.org/2000/svg">
<path d="M20.7598 9.13997C20.6668 9.25156 20.5507 9.34157 20.4195 9.40374C20.2882 9.46591 20.145 9.49875 19.9998 9.49997C19.7661 9.50043 19.5397 9.41905 19.3598 9.26997L18.9998 8.99997V15.5C18.9998 16.0304 18.7891 16.5391 18.414 16.9142C18.0389 17.2893 17.5302 17.5 16.9998 17.5H13.9998C13.7346 17.5 13.4802 17.3946 13.2927 17.2071C13.1051 17.0195 12.9998 16.7652 12.9998 16.5V12.5C12.9998 12.2348 12.8944 11.9804 12.7069 11.7929C12.5194 11.6053 12.265 11.5 11.9998 11.5H9.99979C9.73457 11.5 9.48022 11.6053 9.29268 11.7929C9.10514 11.9804 8.99979 12.2348 8.99979 12.5V16.5C8.99979 16.7652 8.89443 17.0195 8.70689 17.2071C8.51936 17.3946 8.265 17.5 7.99979 17.5H4.99979C4.46935 17.5 3.96065 17.2893 3.58557 16.9142C3.2105 16.5391 2.99979 16.0304 2.99979 15.5V8.99997L2.63979 9.29997C2.43557 9.46971 2.17229 9.55137 1.90786 9.52699C1.64344 9.50261 1.39953 9.37419 1.22979 9.16997C1.06005 8.96575 0.978387 8.70247 1.00277 8.43805C1.02715 8.17362 1.15557 7.92971 1.35979 7.75997L9.12979 1.21997C9.64935 0.770988 10.3131 0.523926 10.9998 0.523926C11.6865 0.523926 12.3502 0.770988 12.8698 1.21997L20.6398 7.75997C20.8341 7.93002 20.9551 8.16861 20.9774 8.42583C20.9998 8.68305 20.9218 8.93895 20.7598 9.13997Z" fill="white" stroke="#444444"/>
</svg>
