<svg width="14" height="19" viewBox="0 0 14 19" fill="none" xmlns="http://www.w3.org/2000/svg">
<path fill-rule="evenodd" clip-rule="evenodd" d="M0 2C0 0.895431 0.895431 0 2 0H12C13.1046 0 14 0.895431 14 2V17C14 18.1046 13.1046 19 12 19H2C0.89543 19 0 18.1046 0 17V2ZM1 3C1 1.89543 1.89543 1 3 1H11C12.1046 1 13 1.89543 13 3V16C13 17.1046 12.1046 18 11 18H3C1.89543 18 1 17.1046 1 16V3ZM5.5 16C5.22386 16 5 16.2239 5 16.5C5 16.7761 5.22386 17 5.5 17H8.5C8.77614 17 9 16.7761 9 16.5C9 16.2239 8.77614 16 8.5 16H5.5Z" fill="#FF6700"/>
</svg>
