<svg width="16" height="20" viewBox="0 0 16 20" fill="none" xmlns="http://www.w3.org/2000/svg">
<path d="M14.6685 8.2586C15.4301 7.82756 15.9507 6.98848 15.9616 6.02297C15.9616 6.01722 15.9616 6.00572 15.9616 5.99998V5.99423C15.9616 5.98274 15.9616 5.97699 15.9616 5.9655C15.9616 5.95975 15.9616 5.954 15.9616 5.94825C15.9616 5.94251 15.9616 5.93101 15.9562 5.92527C15.9562 5.91952 15.9562 5.91377 15.9507 5.90228C15.9507 5.89653 15.9452 5.89078 15.9452 5.88504C15.9452 5.87929 15.9397 5.86779 15.9397 5.86205C15.9397 5.8563 15.9342 5.85055 15.9342 5.84481C15.9288 5.83331 15.9288 5.82756 15.9233 5.82182V5.81607L14.4219 2.48274V1.35055C14.4219 0.614923 13.852 0.0114746 13.1452 0.0114746H2.83836C2.13699 0.0114746 1.56164 0.609176 1.56164 1.35055V2.51147L0.0767132 5.81607V5.82182C0.0712337 5.82756 0.0712335 5.83906 0.065754 5.84481C0.065754 5.85055 0.0602747 5.8563 0.0602747 5.86205C0.0602747 5.86779 0.0547953 5.87929 0.0547953 5.88504C0.0547953 5.89078 0.0493159 5.89653 0.0493159 5.90228C0.0493159 5.90802 0.049316 5.91377 0.0438366 5.92527C0.0438366 5.93101 0.0438362 5.94251 0.0383568 5.94825C0.0383568 5.954 0.0383568 5.95975 0.0383568 5.9655C0.0383568 5.97699 0.0383568 5.98274 0.0383568 5.99423V5.99998C0.0383568 6.00572 0.0383568 6.01722 0.0383568 6.02297C0.0493157 6.98848 0.569864 7.82756 1.33151 8.2586V17.9827C1.33151 19.0862 2.03836 19.9885 2.90411 19.9885H13.1014C13.9671 19.9885 14.674 19.0862 14.674 17.9827V8.2586H14.6685ZM13.5178 7.70113C12.9041 7.70113 12.3397 7.33331 12.0657 6.76435L11.9945 6.43101H15.0904C14.9041 7.1609 14.2685 7.70113 13.5178 7.70113ZM4.84931 6.42527H7.58904V6.80457C7.30959 7.35055 6.75616 7.70113 6.1589 7.70113C5.57808 7.70113 5.04109 7.37354 4.75616 6.85055L4.84931 6.42527ZM2.24657 3.00573H4.75616L4.19178 5.5632H1.09589L2.24657 3.00573ZM5.6 3.00573H7.58904V5.5632H5.04109L5.6 3.00573ZM10.4 3.00573L10.9644 5.5632H8.41644V3.00573H10.4ZM14.9041 5.5632H11.8082L11.2438 3.00573H13.7534L14.9041 5.5632ZM8.41096 6.42527H11.1507L11.2438 6.85055C10.9534 7.36779 10.4164 7.70113 9.84109 7.70113C9.24383 7.70113 8.69589 7.35055 8.41096 6.80457V6.42527ZM2.38356 1.35055C2.38356 1.09193 2.5863 0.873543 2.83836 0.873543H13.1507C13.3973 0.873543 13.6055 1.08619 13.6055 1.35055V2.14941H2.38356V1.35055ZM0.915069 6.42527H4.01096L3.93972 6.7586C3.66575 7.32756 3.10137 7.69538 2.48767 7.69538C1.73151 7.70113 1.09589 7.1609 0.915069 6.42527ZM2.48219 8.5632C3.19452 8.5632 3.86301 8.23561 4.32329 7.68963C4.78356 8.23561 5.45205 8.5632 6.16438 8.5632C6.87671 8.5632 7.5452 8.23561 8.00548 7.68963C8.46575 8.23561 9.13424 8.5632 9.84657 8.5632C10.5589 8.5632 11.2274 8.23561 11.6877 7.68963C12.1479 8.23561 12.8164 8.5632 13.5288 8.5632C13.6438 8.5632 13.7534 8.5517 13.863 8.54021V16.4827H2.15342V8.54021C2.25753 8.5517 2.3726 8.5632 2.48219 8.5632ZM13.1014 19.1264H2.89863C2.49315 19.1264 2.14794 18.6034 2.14794 17.9827V17.3448H13.8466V17.9827C13.8466 18.6034 13.5068 19.1264 13.1014 19.1264Z" fill="#444444"/>
<path d="M8 17.6896C7.89041 17.6896 7.7863 17.7356 7.70959 17.816C7.63288 17.8965 7.58904 18.0057 7.58904 18.1206C7.58904 18.2356 7.63288 18.3447 7.70959 18.4252C7.7863 18.5057 7.89041 18.5516 8 18.5516C8.10959 18.5516 8.2137 18.5057 8.29041 18.4252C8.36712 18.3447 8.41096 18.2356 8.41096 18.1206C8.41096 18.0057 8.36712 17.8965 8.29041 17.816C8.2137 17.7356 8.10959 17.6896 8 17.6896Z" fill="#444444"/>
</svg>
