<svg width="20" height="20" viewBox="0 0 20 20" fill="none" xmlns="http://www.w3.org/2000/svg">
<path d="M10 0C4.4775 0 0 4.4775 0 10C0 15.5225 4.4775 20 10 20C15.5225 20 20 15.5225 20 10C20 4.4775 15.5225 0 10 0ZM10 18.75C5.17578 18.75 1.25 14.8242 1.25 10C1.25 5.17578 5.17578 1.25 10 1.25C14.8242 1.25 18.75 5.17578 18.75 10C18.75 14.8242 14.8242 18.75 10 18.75Z" fill="#B0BEC5"/>
<path d="M10 7.5C9.31031 7.5 8.75 8.06031 8.75 8.75V15C8.75 15.6897 9.31031 16.25 10 16.25C10.6897 16.25 11.25 15.6897 11.25 15V8.75C11.25 8.06031 10.6897 7.5 10 7.5ZM10 6.25C10.6897 6.25 11.25 5.68969 11.25 5C11.25 4.31031 10.6897 3.75 10 3.75C9.31031 3.75 8.75 4.31031 8.75 5C8.75 5.68969 9.31031 6.25 10 6.25Z" fill="#444444"/>
</svg>
