<svg width="42" height="36" viewBox="0 0 42 36" fill="none" xmlns="http://www.w3.org/2000/svg">
<path fill-rule="evenodd" clip-rule="evenodd" d="M10.5283 0H21H31.4717L36.7359 9L42 18L36.7359 27L31.4717 36H21H10.5283L5.26415 27L0 18L5.26415 9L10.5283 0ZM21 5.08696C28.1887 5.08696 34.0189 10.8447 34.0189 17.9441C34.0189 25.0435 28.1887 30.8012 21 30.8012C13.8113 30.8012 7.98113 25.0435 7.98113 17.9441C7.98113 10.8447 13.8113 5.08696 21 5.08696Z" fill="#FF6700"/>
<path d="M27.8657 13.6607L27.1589 12.9619C27.5681 12.4994 27.8298 11.9276 27.911 11.3184C27.9922 10.7092 27.8893 10.0899 27.6152 9.53844C27.0247 8.4769 25.7631 8.46805 24.6536 8.45921C23.0073 8.45921 21.9694 8.34421 21.6652 6.76959C21.6546 6.7121 21.6323 6.65732 21.5998 6.60855C21.5672 6.55978 21.525 6.51803 21.4757 6.4858C21.4264 6.45357 21.371 6.43154 21.3128 6.42102C21.2547 6.4105 21.195 6.41172 21.1373 6.42459C21.0797 6.4362 21.025 6.45891 20.9763 6.49142C20.9276 6.52393 20.8859 6.56561 20.8535 6.61408C20.8211 6.66255 20.7987 6.71685 20.7875 6.77389C20.7763 6.83093 20.7766 6.88959 20.7884 6.94652C21.2715 9.29959 23.2221 9.32613 24.6447 9.34382C25.79 9.34382 26.5147 9.3969 26.8279 9.96305C27.0124 10.3399 27.0811 10.7621 27.0254 11.1772C26.9697 11.5923 26.7922 11.9821 26.5147 12.2984L26.2105 11.9977C26.1705 11.9552 26.122 11.9214 26.0681 11.8986C26.0142 11.8757 25.956 11.8643 25.8973 11.865H21.6384C21.5764 11.8656 21.5153 11.8784 21.4584 11.9027C21.4016 11.927 21.3502 11.9623 21.3073 12.0065L12.011 21.9938C11.9317 22.0761 11.8875 22.1854 11.8875 22.299C11.8875 22.4127 11.9317 22.5219 12.011 22.6042L17.9252 28.425C17.9652 28.4675 18.0137 28.5012 18.0676 28.5241C18.1215 28.5469 18.1797 28.5584 18.2384 28.5577C18.2991 28.5579 18.3593 28.5455 18.4148 28.5211C18.4703 28.4967 18.52 28.4609 18.5605 28.4161L27.8836 18.4288C27.9585 18.3461 27.9999 18.239 28 18.1281V13.9615C27.9994 13.905 27.9873 13.8492 27.9642 13.7975C27.9411 13.7457 27.9076 13.6992 27.8657 13.6607ZM27.1052 17.96L18.2473 27.4784L12.9594 22.2769L21.8352 12.7496H25.6826L27.1052 14.1561V17.96Z" fill="#FF6700"/>
<path d="M23.4637 15.1204C23.3525 15.2309 23.2644 15.362 23.2046 15.5062C23.1447 15.6504 23.1142 15.8049 23.1148 15.9607C23.1144 16.1153 23.145 16.2684 23.2049 16.4111C23.2648 16.5538 23.3528 16.6834 23.4637 16.7923C23.69 17.0135 23.9955 17.1375 24.3137 17.1373C24.6292 17.1371 24.9318 17.013 25.1548 16.7923C25.2685 16.6851 25.359 16.556 25.4205 16.413C25.482 16.27 25.5134 16.1161 25.5126 15.9607C25.5131 15.8041 25.4816 15.649 25.4201 15.5046C25.3586 15.3602 25.2684 15.2295 25.1548 15.1204C24.9301 14.8994 24.6261 14.7754 24.3092 14.7754C23.9924 14.7754 23.6884 14.8994 23.4637 15.1204ZM24.5284 16.1642C24.5008 16.1931 24.4676 16.2162 24.4306 16.2319C24.3937 16.2476 24.3539 16.2558 24.3137 16.2558C24.2735 16.2558 24.2337 16.2476 24.1968 16.2319C24.1598 16.2162 24.1266 16.1931 24.099 16.1642C24.0696 16.1391 24.0463 16.1077 24.0308 16.0725C24.0153 16.0373 24.0081 15.9991 24.0095 15.9607C24.0091 15.9212 24.0168 15.882 24.0322 15.8455C24.0476 15.809 24.0703 15.776 24.099 15.7484C24.1564 15.6928 24.2333 15.6611 24.3137 15.66C24.3934 15.6643 24.4692 15.6955 24.5284 15.7484C24.5847 15.8052 24.6168 15.8812 24.6179 15.9607C24.6163 16.0376 24.5842 16.1107 24.5284 16.1642Z" fill="#FF6700"/>
<path d="M21.5489 16.3854C21.5073 16.3439 21.4578 16.311 21.4033 16.2885C21.3488 16.2661 21.2903 16.2545 21.2313 16.2545C21.1722 16.2545 21.1137 16.2661 21.0592 16.2885C21.0047 16.311 20.9552 16.3439 20.9136 16.3854L15.5452 21.693C15.4627 21.7772 15.4165 21.8898 15.4165 22.0071C15.4165 22.1243 15.4627 22.237 15.5452 22.3211C15.6278 22.4045 15.7404 22.4522 15.8584 22.4538C15.9793 22.4535 16.0951 22.4058 16.1805 22.3211L21.5489 17.0134C21.6314 16.9293 21.6776 16.8166 21.6776 16.6994C21.6776 16.5822 21.6314 16.4695 21.5489 16.3854Z" fill="#FF6700"/>
<path d="M23.2131 18.65L19.3926 22.4273C19.3313 22.4891 19.2897 22.5673 19.2729 22.6523C19.2562 22.7373 19.265 22.8253 19.2983 22.9053C19.3317 22.9854 19.3881 23.054 19.4605 23.1027C19.5329 23.1514 19.6182 23.178 19.7057 23.1792C19.8266 23.1789 19.9425 23.1312 20.0278 23.0465L23.8484 19.2692C23.9309 19.185 23.9771 19.0724 23.9771 18.9552C23.9771 18.8379 23.9309 18.7253 23.8484 18.6411C23.8062 18.6002 23.7562 18.568 23.7014 18.5463C23.6466 18.5246 23.5879 18.5139 23.5289 18.5147C23.4698 18.5155 23.4115 18.5279 23.3573 18.5511C23.3031 18.5743 23.2541 18.6079 23.2131 18.65Z" fill="#FF6700"/>
</svg>
