<svg width="19" height="19" viewBox="0 0 19 19" fill="none" xmlns="http://www.w3.org/2000/svg">
<g clip-path="url(#clip0_90_3866)">
<path d="M9.49997 19C9.36541 19.0006 9.23205 18.9747 9.1075 18.9238C8.98295 18.8728 8.86966 18.7978 8.77411 18.7031L3.89348 13.8225C3.12288 13.0561 2.5129 12.1438 2.09923 11.1388C1.68556 10.1338 1.47652 9.05636 1.48434 7.96959C1.48102 6.91739 1.68766 5.87509 2.09216 4.90374C2.49666 3.93239 3.09088 3.05149 3.84005 2.31264C5.35311 0.834256 7.38455 0.00656128 9.49997 0.00656128C11.6154 0.00656128 13.6468 0.834256 15.1599 2.31264C15.9091 3.05149 16.5033 3.93239 16.9078 4.90374C17.3123 5.87509 17.5189 6.91739 17.5156 7.96959C17.5234 9.05636 17.3144 10.1338 16.9007 11.1388C16.487 12.1438 15.8771 13.0561 15.1065 13.8225L10.2258 18.6942C10.131 18.7906 10.018 18.8672 9.89347 18.9197C9.76889 18.9721 9.63515 18.9994 9.49997 19ZM9.49997 0.890609C7.61642 0.886271 5.80717 1.62501 4.46497 2.94647C3.80002 3.60296 3.27269 4.38548 2.91382 5.24824C2.55496 6.111 2.37177 7.03667 2.37497 7.97108C2.36784 8.94037 2.55413 9.90134 2.92294 10.7978C3.29175 11.6942 3.83567 12.508 4.52286 13.1916L9.402 18.0633C9.4146 18.0764 9.4297 18.0868 9.44641 18.0939C9.46311 18.101 9.48108 18.1047 9.49923 18.1047C9.51737 18.1047 9.53534 18.101 9.55204 18.0939C9.56875 18.0868 9.58385 18.0764 9.59645 18.0633L14.4771 13.1916C15.1643 12.508 15.7082 11.6942 16.077 10.7978C16.4458 9.90134 16.6321 8.94037 16.625 7.97108C16.6282 7.03667 16.445 6.111 16.0861 5.24824C15.7272 4.38548 15.1999 3.60296 14.535 2.94647C13.1928 1.62501 11.3835 0.886271 9.49997 0.890609Z" fill="#20863D"/>
<path d="M9.50008 12.0843C8.56451 12.0839 7.65802 11.7591 6.93499 11.1654C6.21196 10.5717 5.7171 9.74568 5.53467 8.82807C5.35225 7.91046 5.49356 6.95799 5.93452 6.13286C6.37548 5.30774 7.08884 4.66098 7.9531 4.30274C8.81736 3.94449 9.77908 3.89692 10.6745 4.16811C11.5699 4.43931 12.3436 5.0125 12.8638 5.79008C13.3841 6.56766 13.6187 7.50153 13.5277 8.43267C13.4367 9.3638 13.0258 10.2346 12.3649 10.8968C11.9891 11.2736 11.5425 11.5724 11.0509 11.7762C10.5593 11.98 10.0323 12.0847 9.50008 12.0843ZM9.50008 4.88656C8.77012 4.88772 8.06314 5.14189 7.49955 5.60578C6.93596 6.06968 6.55062 6.7146 6.40915 7.43072C6.26767 8.14683 6.37883 8.88984 6.72368 9.5332C7.06852 10.1766 7.62574 10.6805 8.30041 10.9591C8.97509 11.2378 9.7255 11.2739 10.4238 11.0614C11.1222 10.8489 11.7252 10.4009 12.1303 9.79365C12.5354 9.18641 12.7175 8.45753 12.6455 7.73113C12.5735 7.00473 12.2519 6.32576 11.7355 5.80984C11.442 5.51644 11.0934 5.28386 10.7098 5.12542C10.3262 4.96699 9.91511 4.88581 9.50008 4.88656Z" fill="#20863D"/>
</g>
<defs>
<clipPath id="clip0_90_3866">
<rect width="19" height="19" fill="white"/>
</clipPath>
</defs>
</svg>
