<svg width="20" height="20" viewBox="0 0 20 20" fill="none" xmlns="http://www.w3.org/2000/svg">
<rect width="20" height="20" rx="10" fill="white"/>
<path d="M15.0714 9.82146C13.8309 11.7366 11.8287 13.0715 9.5 13.0715C7.17132 13.0715 5.16909 11.7366 3.92857 9.82146C4.61775 8.75505 5.56083 7.84099 6.69252 7.26063C6.40234 7.75393 6.25 8.31978 6.25 8.89288C6.25 10.6847 7.70815 12.1429 9.5 12.1429C11.2919 12.1429 12.75 10.6847 12.75 8.89288C12.75 8.31978 12.5977 7.75393 12.3075 7.26063C13.4392 7.84099 14.3823 8.75505 15.0714 9.82146ZM9.84821 7.03574C9.84821 7.22436 9.68862 7.38396 9.5 7.38396C8.67299 7.38396 7.99107 8.06588 7.99107 8.89288C7.99107 9.0815 7.83147 9.2411 7.64286 9.2411C7.45424 9.2411 7.29464 9.0815 7.29464 8.89288C7.29464 7.68139 8.2885 6.68753 9.5 6.68753C9.68862 6.68753 9.84821 6.84712 9.84821 7.03574ZM16 9.82146C16 9.64009 15.942 9.47324 15.8549 9.3209C14.5201 7.13005 12.0753 5.64288 9.5 5.64288C6.92467 5.64288 4.47991 7.13005 3.14509 9.3209C3.05804 9.47324 3 9.64009 3 9.82146C3 10.0028 3.05804 10.1697 3.14509 10.322C4.47991 12.5129 6.92467 14 9.5 14C12.0753 14 14.5201 12.5201 15.8549 10.322C15.942 10.1697 16 10.0028 16 9.82146Z" fill="#FF6700"/>
</svg>
