<?xml version="1.0" encoding="UTF-8"?>
<svg xmlns="http://www.w3.org/2000/svg" xmlns:xlink="http://www.w3.org/1999/xlink" width="30px" height="30px" fill="#fff" viewBox="0 0 30 30" version="1.1">
<g id="surface1">
<path style=" stroke:none;fill-rule:nonzero;fill:#444444;fill-opacity:1;" d="M 27.515625 8.804688 C 27.019531 8.804688 26.617188 9.207031 26.617188 9.703125 C 26.617188 10.199219 27.019531 10.605469 27.515625 10.605469 C 27.894531 10.605469 28.199219 10.910156 28.199219 11.289062 L 28.199219 22.945312 C 28.199219 23.90625 27.417969 24.691406 26.453125 24.691406 C 25.488281 24.691406 24.703125 23.90625 24.703125 22.945312 L 24.703125 5.992188 C 24.703125 4.621094 23.589844 3.507812 22.21875 3.507812 L 2.484375 3.507812 C 1.113281 3.507812 0 4.621094 0 5.992188 L 0 24.007812 C 0 25.34375 1.0625 26.4375 2.390625 26.488281 C 2.421875 26.488281 2.453125 26.492188 2.484375 26.492188 L 26.453125 26.492188 C 28.410156 26.492188 30 24.898438 30 22.945312 L 30 11.289062 C 30 9.917969 28.886719 8.804688 27.515625 8.804688 Z M 1.800781 24.007812 L 1.800781 5.992188 C 1.800781 5.613281 2.105469 5.308594 2.484375 5.308594 L 22.21875 5.308594 C 22.597656 5.308594 22.90625 5.613281 22.90625 5.992188 L 22.90625 22.945312 C 22.90625 23.578125 23.074219 24.175781 23.367188 24.691406 L 2.484375 24.691406 C 2.105469 24.691406 1.800781 24.382812 1.800781 24.007812 Z M 1.800781 24.007812 "/>
<path style=" stroke:none;fill-rule:nonzero;fill:#444444;fill-opacity:1;" d="M 18.738281 11.054688 L 13.140625 11.054688 C 12.644531 11.054688 12.238281 11.457031 12.238281 11.957031 C 12.238281 12.453125 12.644531 12.855469 13.140625 12.855469 L 18.738281 12.855469 C 19.234375 12.855469 19.636719 12.453125 19.636719 11.957031 C 19.636719 11.457031 19.234375 11.054688 18.738281 11.054688 Z M 18.738281 11.054688 "/>
<path style=" stroke:none;fill-rule:nonzero;fill:#444444;fill-opacity:1;" d="M 18.738281 15.535156 L 6.140625 15.535156 C 5.644531 15.535156 5.242188 15.9375 5.242188 16.433594 C 5.242188 16.929688 5.644531 17.332031 6.140625 17.332031 L 18.738281 17.332031 C 19.234375 17.332031 19.636719 16.929688 19.636719 16.433594 C 19.636719 15.9375 19.234375 15.535156 18.738281 15.535156 Z M 18.738281 15.535156 "/>
<path style=" stroke:none;fill-rule:nonzero;fill:#444444;fill-opacity:1;" d="M 18.738281 20.011719 L 6.140625 20.011719 C 5.644531 20.011719 5.242188 20.414062 5.242188 20.910156 C 5.242188 21.410156 5.644531 21.8125 6.140625 21.8125 L 18.738281 21.8125 C 19.234375 21.8125 19.636719 21.410156 19.636719 20.910156 C 19.636719 20.414062 19.234375 20.011719 18.738281 20.011719 Z M 18.738281 20.011719 "/>
<path style=" stroke:none;fill-rule:nonzero;fill:#444444;fill-opacity:1;" d="M 5.964844 12.855469 L 9.550781 12.855469 C 10.050781 12.855469 10.453125 12.453125 10.453125 11.957031 L 10.453125 8.367188 C 10.453125 7.871094 10.050781 7.46875 9.550781 7.46875 C 9.054688 7.46875 8.652344 7.871094 8.652344 8.367188 L 8.652344 11.054688 L 5.964844 11.054688 C 5.46875 11.054688 5.066406 11.457031 5.066406 11.957031 C 5.066406 12.453125 5.46875 12.855469 5.964844 12.855469 Z M 5.964844 12.855469 "/>
</g>
</svg>
