<svg width="15" height="16" viewBox="0 0 15 16" fill="none" xmlns="http://www.w3.org/2000/svg">
<path d="M7.63394 14.3393C7.63394 14.4146 7.57534 14.4732 7.50001 14.4732C6.68807 14.4732 6.02679 13.8119 6.02679 13C6.02679 12.9246 6.08539 12.866 6.16072 12.866C6.23606 12.866 6.29465 12.9246 6.29465 13C6.29465 13.6612 6.83873 14.2053 7.50001 14.2053C7.57534 14.2053 7.63394 14.2639 7.63394 14.3393ZM2.05916 11.9285C3.55748 10.2377 4.28572 7.94416 4.28572 4.96425C4.28572 3.88445 5.30693 2.28568 7.50001 2.28568C9.69309 2.28568 10.7143 3.88445 10.7143 4.96425C10.7143 7.94416 11.4425 10.2377 12.9409 11.9285H2.05916ZM14.4643 11.9285C13.2255 10.8822 11.7857 9.00722 11.7857 4.96425C11.7857 3.35711 10.4548 1.5993 8.23661 1.27285C8.27847 1.1724 8.30358 1.06358 8.30358 0.946394C8.30358 0.502756 7.94365 0.142822 7.50001 0.142822C7.05637 0.142822 6.69644 0.502756 6.69644 0.946394C6.69644 1.06358 6.72155 1.1724 6.7634 1.27285C4.54521 1.5993 3.21429 3.35711 3.21429 4.96425C3.21429 9.00722 1.77456 10.8822 0.535721 11.9285C0.535721 12.5145 1.02121 13 1.60715 13H5.35715C5.35715 14.1802 6.31976 15.1428 7.50001 15.1428C8.68025 15.1428 9.64286 14.1802 9.64286 13H13.3929C13.9788 13 14.4643 12.5145 14.4643 11.9285Z" fill="#444444"/>
</svg>
