<svg width="16" height="20" viewBox="0 0 16 20" fill="none" xmlns="http://www.w3.org/2000/svg">
<path d="M14.6687 8.2586C15.4303 7.82756 15.9509 6.98848 15.9619 6.02297C15.9619 6.01722 15.9619 6.00572 15.9619 5.99998V5.99423C15.9619 5.98274 15.9619 5.97699 15.9619 5.9655C15.9619 5.95975 15.9619 5.954 15.9619 5.94825C15.9619 5.94251 15.9619 5.93101 15.9564 5.92527C15.9564 5.91952 15.9564 5.91377 15.9509 5.90228C15.9509 5.89653 15.9454 5.89078 15.9454 5.88504C15.9454 5.87929 15.9399 5.86779 15.9399 5.86205C15.9399 5.8563 15.9345 5.85055 15.9345 5.84481C15.929 5.83331 15.929 5.82756 15.9235 5.82182V5.81607L14.4221 2.48274V1.35055C14.4221 0.614923 13.8523 0.0114746 13.1454 0.0114746H2.83857C2.1372 0.0114746 1.56186 0.609176 1.56186 1.35055V2.51147L0.0769306 5.81607V5.82182C0.0714512 5.82756 0.0714509 5.83906 0.0659715 5.84481C0.0659715 5.85055 0.0604921 5.8563 0.0604921 5.86205C0.0604921 5.86779 0.0550127 5.87929 0.0550127 5.88504C0.0550127 5.89078 0.0495334 5.89653 0.0495334 5.90228C0.0495334 5.90802 0.0495335 5.91377 0.044054 5.92527C0.044054 5.93101 0.0440537 5.94251 0.0385742 5.94825C0.0385742 5.954 0.0385742 5.95975 0.0385742 5.9655C0.0385742 5.97699 0.0385742 5.98274 0.0385742 5.99423V5.99998C0.0385742 6.00572 0.0385742 6.01722 0.0385742 6.02297C0.0495331 6.98848 0.570081 7.82756 1.33172 8.2586V17.9827C1.33172 19.0862 2.03857 19.9885 2.90433 19.9885H13.1016C13.9673 19.9885 14.6742 19.0862 14.6742 17.9827V8.2586H14.6687ZM13.518 7.70113C12.9043 7.70113 12.3399 7.33331 12.066 6.76435L11.9947 6.43101H15.0906C14.9043 7.1609 14.2687 7.70113 13.518 7.70113ZM4.84953 6.42527H7.58926V6.80457C7.3098 7.35055 6.75638 7.70113 6.15912 7.70113C5.5783 7.70113 5.04131 7.37354 4.75638 6.85055L4.84953 6.42527ZM2.24679 3.00573H4.75638L4.192 5.5632H1.09611L2.24679 3.00573ZM5.60021 3.00573H7.58926V5.5632H5.04131L5.60021 3.00573ZM10.4002 3.00573L10.9646 5.5632H8.41665V3.00573H10.4002ZM14.9043 5.5632H11.8084L11.244 3.00573H13.7536L14.9043 5.5632ZM8.41117 6.42527H11.1509L11.244 6.85055C10.9536 7.36779 10.4167 7.70113 9.84131 7.70113C9.24405 7.70113 8.6961 7.35055 8.41117 6.80457V6.42527ZM2.38378 1.35055C2.38378 1.09193 2.58652 0.873543 2.83857 0.873543H13.1509C13.3975 0.873543 13.6057 1.08619 13.6057 1.35055V2.14941H2.38378V1.35055ZM0.915286 6.42527H4.01117L3.93994 6.7586C3.66597 7.32756 3.10159 7.69538 2.48789 7.69538C1.73172 7.70113 1.09611 7.1609 0.915286 6.42527ZM2.48241 8.5632C3.19474 8.5632 3.86323 8.23561 4.3235 7.68963C4.78378 8.23561 5.45227 8.5632 6.1646 8.5632C6.87693 8.5632 7.54542 8.23561 8.00569 7.68963C8.46597 8.23561 9.13446 8.5632 9.84679 8.5632C10.5591 8.5632 11.2276 8.23561 11.6879 7.68963C12.1482 8.23561 12.8166 8.5632 13.529 8.5632C13.644 8.5632 13.7536 8.5517 13.8632 8.54021V16.4827H2.15364V8.54021C2.25775 8.5517 2.37282 8.5632 2.48241 8.5632ZM13.1016 19.1264H2.89885C2.49337 19.1264 2.14816 18.6034 2.14816 17.9827V17.3448H13.8468V17.9827C13.8468 18.6034 13.5071 19.1264 13.1016 19.1264Z" fill="#444444"/>
</svg>
